<?xml version="1.0" encoding="UTF-8" standalone="no"?>
<!DOCTYPE svg PUBLIC "-//W3C//DTD SVG 1.1//EN" "http://www.w3.org/Graphics/SVG/1.1/DTD/svg11.dtd">
<svg xmlns="http://www.w3.org/2000/svg" version="1.1" viewBox="0.00 0.00 500.00 500.00">
<g stroke-width="2.00" fill="none" stroke-linecap="butt">
<path stroke="#60616f" vector-effect="non-scaling-stroke" d="
  M 203.31 70.41
  L 192.36 74.78"
/>
<path stroke="#494b6c" vector-effect="non-scaling-stroke" d="
  M 192.36 74.78
  L 181.13 80.06"
/>
<path stroke="#423b63" vector-effect="non-scaling-stroke" d="
  M 181.13 80.06
  L 171.20 86.11"
/>
<path stroke="#60616f" vector-effect="non-scaling-stroke" d="
  M 171.20 86.11
  Q 156.14 95.78 143.88 109.67"
/>
<path stroke="#554460" vector-effect="non-scaling-stroke" d="
  M 143.88 109.67
  Q 131.31 123.92 123.16 140.43"
/>
<path stroke="#636873" vector-effect="non-scaling-stroke" d="
  M 123.16 140.43
  L 122.27 142.49"
/>
<path stroke="#494b6c" vector-effect="non-scaling-stroke" d="
  M 122.27 142.49
  L 120.41 146.54"
/>
<path stroke="#636873" vector-effect="non-scaling-stroke" d="
  M 120.41 146.54
  L 116.84 155.61"
/>
<path stroke="#554460" vector-effect="non-scaling-stroke" d="
  M 116.84 155.61
  L 113.85 164.70"
/>
<path stroke="#423b63" vector-effect="non-scaling-stroke" d="
  M 113.85 164.70
  L 112.62 169.44"
/>
<path stroke="#494b6c" vector-effect="non-scaling-stroke" d="
  M 112.62 169.44
  L 110.29 181.78"
/>
<path stroke="#636873" vector-effect="non-scaling-stroke" d="
  M 110.29 181.78
  Q 108.51 193.87 108.85 203.80"
/>
<path stroke="#554460" vector-effect="non-scaling-stroke" d="
  M 108.85 203.80
  L 109.04 214.00"
/>
<path stroke="#6c7f80" vector-effect="non-scaling-stroke" d="
  M 109.04 214.00
  C 94.25 222.32 14.67 268.46 27.75 290.59
  C 39.50 310.46 110.52 295.14 131.41 290.25
  Q 132.20 290.06 131.82 290.78
  Q 123.33 306.68 116.77 323.48
  Q 116.57 324.00 116.01 324.00
  L 72.78 324.00
  Q 72.37 324.00 72.09 324.29
  L 46.89 349.48
  Q 46.52 349.86 46.52 350.39
  L 46.47 371.14
  Q 46.47 371.59 46.78 371.91
  L 71.78 396.90
  A 0.95 0.94 67.8 0 0 72.46 397.19
  L 121.69 397.39
  Q 122.39 397.39 121.90 397.90
  L 107.37 412.75
  Q 107.00 413.13 107.00 413.66
  L 107.00 424.11
  Q 107.00 424.86 107.52 425.39
  L 124.36 442.57
  A 1.47 1.44 67.1 0 0 125.39 443.00
  L 374.62 443.00
  Q 375.16 443.00 375.54 442.62
  L 392.63 425.43
  Q 393.00 425.06 393.00 424.53
  L 393.00 413.48
  A 1.28 1.27 -67.3 0 0 392.64 412.59
  L 378.09 397.92
  Q 377.74 397.56 378.24 397.55
  L 427.91 397.22
  Q 428.40 397.21 428.75 396.87
  L 453.38 371.92
  Q 453.75 371.55 453.75 371.03
  L 453.75 350.42
  Q 453.75 349.88 453.38 349.50
  L 428.65 324.45
  Q 428.20 324.00 427.57 324.00
  L 383.49 324.00
  Q 382.97 324.00 382.79 323.50
  C 377.09 307.59 371.23 296.00 362.60 280.78"
/>
<path stroke="#4e3256" vector-effect="non-scaling-stroke" d="
  M 362.60 280.78
  Q 369.50 270.45 374.63 259.39"
/>
<path stroke="#3b2d5b" vector-effect="non-scaling-stroke" d="
  M 374.63 259.39
  L 379.98 246.41"
/>
<path stroke="#49264f" vector-effect="non-scaling-stroke" d="
  M 379.98 246.41
  Q 384.53 233.25 386.14 218.87"
/>
<path stroke="#4e3256" vector-effect="non-scaling-stroke" d="
  M 386.14 218.87
  L 386.71 211.98"
/>
<path stroke="#3b2d5b" vector-effect="non-scaling-stroke" d="
  M 386.71 211.98
  Q 387.96 201.77 386.41 190.96"
/>
<path stroke="#6c7f80" vector-effect="non-scaling-stroke" d="
  M 386.41 190.96
  C 401.57 182.65 481.28 136.53 468.48 113.92
  C 456.81 93.30 377.13 111.36 357.57 116.38"
/>
<path stroke="#4e3256" vector-effect="non-scaling-stroke" d="
  M 357.57 116.38
  C 334.60 88.01 299.76 66.87 262.79 63.85"
/>
<path stroke="#554460" vector-effect="non-scaling-stroke" d="
  M 262.79 63.85
  Q 232.40 60.51 203.31 70.41"
/>
<path stroke="#a276b5" vector-effect="non-scaling-stroke" d="
  M 262.79 63.85
  Q 262.75 64.72 260.79 64.64
  A 0.29 0.28 76.3 0 0 260.53 65.07
  L 260.74 65.44
  Q 260.91 65.72 260.72 65.99
  Q 259.16 68.11 258.74 70.74
  Q 258.65 71.28 259.03 71.66
  L 259.66 72.29
  Q 259.87 72.49 259.57 72.50
  Q 259.43 72.50 259.28 72.49
  Q 258.91 72.47 259.20 72.71
  L 260.02 73.37"
/>
<path stroke="#c0c3df" vector-effect="non-scaling-stroke" d="
  M 260.02 73.37
  Q 237.11 71.07 216.70 79.32"
/>
<path stroke="#b5a5cf" vector-effect="non-scaling-stroke" d="
  M 216.70 79.32
  Q 209.52 75.42 203.31 70.41"
/>
<path stroke="#c0c3df" vector-effect="non-scaling-stroke" d="
  M 328.21 119.91
  L 333.59 131.28"
/>
<path stroke="#aeb9e3" vector-effect="non-scaling-stroke" d="
  M 333.59 131.28
  L 337.59 144.48"
/>
<path stroke="#a7acda" vector-effect="non-scaling-stroke" d="
  M 337.59 144.48
  L 338.40 148.18"
/>
<path stroke="#cce0ef" vector-effect="non-scaling-stroke" d="
  M 338.40 148.18
  L 340.03 166.31"
/>
<path stroke="#b9b1d5" vector-effect="non-scaling-stroke" d="
  M 340.03 166.31
  Q 339.99 177.91 338.50 188.96"
/>
<path stroke="#c0c3df" vector-effect="non-scaling-stroke" d="
  M 338.50 188.96
  L 336.92 196.64"
/>
<path stroke="#aeb9e3" vector-effect="non-scaling-stroke" d="
  M 336.92 196.64
  Q 334.80 204.92 331.03 213.00
  Q 330.80 213.49 331.28 213.25
  L 366.00 195.38"
/>
<path stroke="#c0c3df" vector-effect="non-scaling-stroke" d="
  M 366.00 195.38
  L 376.84 189.35"
/>
<path stroke="#b9b1d5" vector-effect="non-scaling-stroke" d="
  M 376.84 189.35
  L 386.00 183.96"
/>
<path stroke="#6c7f80" vector-effect="non-scaling-stroke" d="
  M 386.00 183.96
  Q 408.76 170.59 428.68 153.38
  C 433.14 149.52 437.91 144.25 440.91 139.92
  C 457.96 115.23 422.37 114.63 409.20 115.35
  Q 385.33 116.66 362.00 121.79"
/>
<path stroke="#a7acda" vector-effect="non-scaling-stroke" d="
  M 386.41 190.96
  L 374.78 197.43"
/>
<path stroke="#aeb9e3" vector-effect="non-scaling-stroke" d="
  M 374.78 197.43
  L 343.43 213.51"
/>
<path stroke="#c0c3df" vector-effect="non-scaling-stroke" d="
  M 343.43 213.51
  L 331.32 219.37"
/>
<path stroke="#b9b1d5" vector-effect="non-scaling-stroke" d="
  M 331.32 219.37
  C 324.88 221.54 322.47 226.56 318.10 231.34
  A 1.33 1.30 -24.1 0 0 317.75 232.23
  L 317.75 237.28
  Q 317.75 237.85 318.25 238.12
  L 328.82 243.74"
/>
<path stroke="#a7acda" vector-effect="non-scaling-stroke" d="
  M 328.82 243.74
  L 341.00 253.31"
/>
<path stroke="#aeb9e3" vector-effect="non-scaling-stroke" d="
  M 341.00 253.31
  L 348.22 260.48"
/>
<path stroke="#b9b1d5" vector-effect="non-scaling-stroke" d="
  M 348.22 260.48
  Q 356.06 269.89 362.60 280.78"
/>
<path stroke="#c0c3df" vector-effect="non-scaling-stroke" d="
  M 109.04 214.00
  L 109.72 220.99"
/>
<path stroke="#6c7f80" vector-effect="non-scaling-stroke" d="
  M 109.72 220.99
  C 93.34 230.62 72.96 243.14 58.35 257.57
  Q 53.31 262.55 51.25 269.01
  C 45.92 285.73 64.00 287.36 75.75 287.29
  Q 104.44 287.13 132.86 281.42"
/>
<path stroke="#c0c3df" vector-effect="non-scaling-stroke" d="
  M 132.86 281.42
  L 137.36 280.35"
/>
<path stroke="#aeb9e3" vector-effect="non-scaling-stroke" d="
  M 137.36 280.35
  L 140.39 276.13"
/>
<path stroke="#b4c9eb" vector-effect="non-scaling-stroke" d="
  M 140.39 276.13
  L 146.36 267.57"
/>
<path stroke="#aeb9e3" vector-effect="non-scaling-stroke" d="
  M 146.36 267.57
  L 153.99 258.42"
/>
<path stroke="#c0c3df" vector-effect="non-scaling-stroke" d="
  M 153.99 258.42
  Q 161.55 250.53 171.87 243.65"
/>
<path stroke="#cce0ef" vector-effect="non-scaling-stroke" d="
  M 171.87 243.65
  L 182.16 238.04
  Q 182.50 237.85 182.50 237.46
  L 182.50 232.23
  A 1.30 1.30 0.0 0 0 182.12 231.31
  Q 176.36 225.51 172.09 218.73"
/>
<path stroke="#b4c9eb" vector-effect="non-scaling-stroke" d="
  M 172.09 218.73
  L 165.24 203.98"
/>
<path stroke="#aeb9e3" vector-effect="non-scaling-stroke" d="
  M 165.24 203.98
  L 162.27 192.89"
/>
<path stroke="#c0c3df" vector-effect="non-scaling-stroke" d="
  M 162.27 192.89
  L 160.48 178.96"
/>
<path stroke="#cee7f3" vector-effect="non-scaling-stroke" d="
  M 160.48 178.96
  L 160.06 165.71"
/>
<path stroke="#b4c9eb" vector-effect="non-scaling-stroke" d="
  M 160.06 165.71
  L 160.18 161.08"
/>
<path stroke="#cee7f3" vector-effect="non-scaling-stroke" d="
  M 160.18 161.08
  Q 160.73 159.23 160.46 157.50"
/>
<path stroke="#c0c3df" vector-effect="non-scaling-stroke" d="
  M 160.46 157.50
  Q 162.30 140.25 169.70 124.36"
/>
<path stroke="#cce0ef" vector-effect="non-scaling-stroke" d="
  M 169.70 124.36
  C 175.53 113.18 180.65 106.58 189.27 97.26"
/>
<path stroke="#aeb9e3" vector-effect="non-scaling-stroke" d="
  M 189.27 97.26
  L 195.63 91.74"
/>
<path stroke="#b4c9eb" vector-effect="non-scaling-stroke" d="
  M 195.63 91.74
  L 206.55 84.27"
/>
<path stroke="#cce0ef" vector-effect="non-scaling-stroke" d="
  M 216.70 79.32
  L 206.55 84.27"
/>
<path stroke="#a9acdb" vector-effect="non-scaling-stroke" d="
  M 206.55 84.27
  L 192.36 74.78"
/>
<path stroke="#b9b1d5" vector-effect="non-scaling-stroke" d="
  M 357.57 116.38
  Q 359.14 119.82 362.00 121.79"
/>
<path stroke="#4e3256" vector-effect="non-scaling-stroke" d="
  M 362.00 121.79
  L 363.17 124.77"
/>
<path stroke="#a276b5" vector-effect="non-scaling-stroke" d="
  M 363.17 124.77
  L 328.21 119.91"
/>
<path stroke="#b9b1d5" vector-effect="non-scaling-stroke" d="
  M 328.21 119.91
  C 313.80 94.31 289.43 76.83 260.02 73.37"
/>
<path stroke="#977fc3" vector-effect="non-scaling-stroke" d="
  M 137.36 280.35
  Q 134.08 277.03 130.89 277.63"
/>
<path stroke="#8b85cf" vector-effect="non-scaling-stroke" d="
  M 195.63 91.74
  L 181.13 80.06"
/>
<path stroke="#906db9" vector-effect="non-scaling-stroke" d="
  M 348.83 259.60
  Q 348.65 260.07 348.22 260.48"
/>
<path stroke="#b7acd3" vector-effect="non-scaling-stroke" d="
  M 160.48 178.96
  Q 138.02 168.38 116.84 155.61"
/>
<path stroke="#9071ba" vector-effect="non-scaling-stroke" d="
  M 377.18 150.49
  L 375.75 150.54"
/>
<path stroke="#9b8eca" vector-effect="non-scaling-stroke" d="
  M 375.75 150.54
  Q 375.43 150.23 375.00 150.23
  Q 356.74 150.22 338.40 148.18"
/>
<path stroke="#b7acd3" vector-effect="non-scaling-stroke" d="
  M 160.46 157.50
  L 123.16 140.43"
/>
<path stroke="#b5a5cf" vector-effect="non-scaling-stroke" d="
  M 169.70 124.36
  L 143.88 109.67"
/>
<path stroke="#4e3256" vector-effect="non-scaling-stroke" d="
  M 386.00 183.96
  Q 385.96 183.71 385.93 183.46"
/>
<path stroke="#49264f" vector-effect="non-scaling-stroke" d="
  M 385.93 183.46
  Q 385.08 176.01 382.71 168.25"
/>
<path stroke="#554460" vector-effect="non-scaling-stroke" d="
  M 382.71 168.25
  Q 380.89 159.13 377.18 150.49"
/>
<path stroke="#3b2d5b" vector-effect="non-scaling-stroke" d="
  M 377.18 150.49
  L 375.39 146.64"
/>
<path stroke="#423b63" vector-effect="non-scaling-stroke" d="
  M 375.39 146.64
  L 369.88 135.61"
/>
<path stroke="#554460" vector-effect="non-scaling-stroke" d="
  M 369.88 135.61
  L 363.17 124.77"
/>
<path stroke="#9658a4" vector-effect="non-scaling-stroke" d="
  M 386.14 218.87
  L 370.22 219.60
  A 1.33 1.33 0.0 0 0 369.03 220.48
  Q 364.35 233.68 357.50 245.71"
/>
<path stroke="#895fb0" vector-effect="non-scaling-stroke" d="
  M 357.50 245.71
  L 328.82 243.74"
/>
<path stroke="#a276b5" vector-effect="non-scaling-stroke" d="
  M 331.32 219.37
  L 368.27 219.44
  A 1.37 1.37 0.0 0 0 369.58 218.46
  L 371.05 213.43"
/>
<path stroke="#8b85cf" vector-effect="non-scaling-stroke" d="
  M 140.39 276.13
  L 124.49 266.27"
/>
<path stroke="#a9acdb" vector-effect="non-scaling-stroke" d="
  M 172.09 218.73
  L 149.86 206.75"
/>
<path stroke="#abb3df" vector-effect="non-scaling-stroke" d="
  M 149.86 206.75
  Q 130.71 195.73 110.29 181.78"
/>
<path stroke="#b5a5cf" vector-effect="non-scaling-stroke" d="
  M 141.20 226.37
  Q 156.10 235.59 171.87 243.65"
/>
<path stroke="#977fc3" vector-effect="non-scaling-stroke" d="
  M 153.99 258.42
  Q 133.06 247.07 112.47 234.14"
/>
<path stroke="#554460" vector-effect="non-scaling-stroke" d="
  M 112.47 234.14
  L 109.72 220.99"
/>
<path stroke="#8b85cf" vector-effect="non-scaling-stroke" d="
  M 165.24 203.98
  Q 137.97 188.12 112.62 169.44"
/>
<path stroke="#7d68be" vector-effect="non-scaling-stroke" d="
  M 375.39 146.64
  Q 356.45 146.37 337.59 144.48"
/>
<path stroke="#977fc3" vector-effect="non-scaling-stroke" d="
  M 162.27 192.89
  Q 137.51 179.87 113.85 164.70"
/>
<path stroke="#a29cd2" vector-effect="non-scaling-stroke" d="
  M 189.27 97.26
  L 171.20 86.11"
/>
<path stroke="#895fb0" vector-effect="non-scaling-stroke" d="
  M 374.63 259.39
  L 350.23 260.24
  Q 349.73 260.26 349.32 259.96
  L 348.83 259.60"
/>
<path stroke="#7d68be" vector-effect="non-scaling-stroke" d="
  M 348.83 259.60
  L 352.72 253.81
  A 0.53 0.53 0.0 0 0 352.26 252.98
  L 341.00 253.31"
/>
<path stroke="#423b63" vector-effect="non-scaling-stroke" d="
  M 112.47 234.14
  Q 114.15 242.33 116.94 249.25"
/>
<path stroke="#494b6c" vector-effect="non-scaling-stroke" d="
  M 116.94 249.25
  Q 120.24 258.62 124.49 266.27"
/>
<path stroke="#423b63" vector-effect="non-scaling-stroke" d="
  M 124.49 266.27
  L 130.89 277.63"
/>
<path stroke="#554460" vector-effect="non-scaling-stroke" d="
  M 130.89 277.63
  Q 132.76 280.04 132.86 281.42"
/>
<path stroke="#8b85cf" vector-effect="non-scaling-stroke" d="
  M 146.36 267.57
  Q 135.62 260.94 118.31 248.69
  Q 117.42 248.06 116.94 249.25"
/>
<path stroke="#977fc3" vector-effect="non-scaling-stroke" d="
  M 369.88 135.61
  Q 351.66 134.25 333.59 131.28"
/>
<path stroke="#9658a4" vector-effect="non-scaling-stroke" d="
  M 378.26 168.22
  Q 378.11 168.22 377.96 168.24
  Q 377.65 168.27 377.64 168.58
  L 376.91 184.02
  A 0.60 0.59 87.2 0 0 377.58 184.64
  L 385.93 183.46"
/>
<path stroke="#a276b5" vector-effect="non-scaling-stroke" d="
  M 376.84 189.35
  Q 376.15 187.82 376.65 186.47
  Q 377.39 184.45 375.27 184.84
  Q 356.63 188.28 338.50 188.96"
/>
<path stroke="#906db9" vector-effect="non-scaling-stroke" d="
  M 371.30 213.32
  Q 371.31 213.47 371.05 213.43"
/>
<path stroke="#977fc3" vector-effect="non-scaling-stroke" d="
  M 371.05 213.43
  L 343.43 213.51"
/>
<path stroke="#abb3df" vector-effect="non-scaling-stroke" d="
  M 160.18 161.08
  Q 140.95 152.57 122.27 142.49"
/>
<path stroke="#977fc3" vector-effect="non-scaling-stroke" d="
  M 366.00 195.38
  L 336.92 196.64"
/>
<path stroke="#895fb0" vector-effect="non-scaling-stroke" d="
  M 386.71 211.98
  L 371.30 213.32"
/>
<path stroke="#7d68be" vector-effect="non-scaling-stroke" d="
  M 371.30 213.32
  Q 373.86 205.39 374.78 197.43"
/>
<path stroke="#abb3df" vector-effect="non-scaling-stroke" d="
  M 160.06 165.71
  Q 139.86 156.73 120.41 146.54"
/>
<path stroke="#b5a5cf" vector-effect="non-scaling-stroke" d="
  M 375.75 150.54
  Q 376.20 150.77 376.27 151.19
  Q 377.61 159.40 377.28 168.08"
/>
<path stroke="#ae93c5" vector-effect="non-scaling-stroke" d="
  M 377.28 168.08
  L 340.03 166.31"
/>
<path stroke="#c3c9e2" vector-effect="non-scaling-stroke" d="
  M 149.86 206.75
  L 142.60 225.65
  Q 142.41 226.16 141.87 226.25
  L 141.20 226.37"
/>
<path stroke="#b7acd3" vector-effect="non-scaling-stroke" d="
  M 141.20 226.37
  Q 124.78 215.95 108.85 203.80"
/>
<path stroke="#9d6aae" vector-effect="non-scaling-stroke" d="
  M 382.71 168.25
  L 378.26 168.22"
/>
<path stroke="#a276b5" vector-effect="non-scaling-stroke" d="
  M 378.26 168.22
  Q 378.02 167.80 377.28 168.08"
/>
<path stroke="#8453a9" vector-effect="non-scaling-stroke" d="
  M 379.98 246.41
  L 357.50 245.71"
/>
<path stroke="#97b1b3" vector-effect="non-scaling-stroke" d="
  M 148.95 322.67
  Q 154.22 317.26 160.60 312.96
  Q 161.08 312.64 161.32 313.16
  L 166.12 323.35
  A 0.98 0.96 -12.4 0 0 167.02 323.91
  L 178.34 323.75"
/>
<path stroke="#6c7f80" vector-effect="non-scaling-stroke" d="
  M 178.34 323.75
  L 185.17 323.79
  Q 185.78 323.80 185.54 323.24
  L 177.06 304.17"
/>
<path stroke="#97b1b3" vector-effect="non-scaling-stroke" d="
  M 177.06 304.17
  Q 204.15 293.72 232.77 290.95
  Q 234.85 290.75 237.39 290.75"
/>
<path stroke="#6c7f80" vector-effect="non-scaling-stroke" d="
  M 237.39 290.75
  L 237.27 311.02"
/>
<path stroke="#b4a4ce" vector-effect="non-scaling-stroke" d="
  M 237.27 311.02
  Q 214.15 313.74 193.20 323.27
  Q 192.24 323.71 193.29 323.71
  L 237.25 323.91"
/>
<path stroke="#6c7f80" vector-effect="non-scaling-stroke" d="
  M 237.25 323.91
  Q 238.77 324.23 240.25 323.71"
/>
<path stroke="#97b1b3" vector-effect="non-scaling-stroke" d="
  M 240.25 323.71
  Q 241.45 323.94 242.12 323.51"
/>
<path stroke="#ebfeff" vector-effect="non-scaling-stroke" d="
  M 242.12 323.51
  Q 242.74 324.37 243.73 324.09
  Q 244.12 323.98 244.53 323.97
  L 248.47 323.87"
/>
<path stroke="#6c7f80" vector-effect="non-scaling-stroke" d="
  M 248.47 323.87
  Q 250.06 324.24 251.25 323.76"
/>
<path stroke="#97b1b3" vector-effect="non-scaling-stroke" d="
  M 251.25 323.76
  L 259.87 323.73"
/>
<path stroke="#6c7f80" vector-effect="non-scaling-stroke" d="
  M 259.87 323.73
  Q 261.11 324.26 263.03 323.89"
/>
<path stroke="#b4a4ce" vector-effect="non-scaling-stroke" d="
  M 263.03 323.89
  L 307.96 323.90
  Q 308.67 323.90 308.11 323.47
  C 296.44 314.34 279.29 311.48 263.06 309.42"
/>
<path stroke="#6c7f80" vector-effect="non-scaling-stroke" d="
  M 263.06 309.42
  L 263.03 290.32"
/>
<path stroke="#97b1b3" vector-effect="non-scaling-stroke" d="
  M 263.03 290.32
  C 284.88 292.24 302.79 299.92 321.34 311.18"
/>
<path stroke="#6c7f80" vector-effect="non-scaling-stroke" d="
  M 321.34 311.18
  L 315.86 323.29
  Q 315.57 323.91 316.25 323.90
  L 321.91 323.84"
/>
<path stroke="#97b1b3" vector-effect="non-scaling-stroke" d="
  M 321.91 323.84
  L 330.56 323.92
  Q 331.18 323.93 331.39 323.35
  L 332.72 319.75
  A 0.70 0.70 0.0 0 1 333.81 319.43
  L 339.32 323.69
  A 1.35 1.31 -25.8 0 0 340.17 323.97
  L 350.10 323.79"
/>
<path stroke="#6c7f80" vector-effect="non-scaling-stroke" d="
  M 350.10 323.79
  L 373.08 323.85
  Q 374.42 323.85 373.92 322.60
  Q 363.40 296.41 348.43 274.32
  Q 332.63 251.01 303.79 241.82
  A 0.39 0.39 0.0 0 1 303.63 241.17
  L 308.92 235.99
  A 1.11 1.08 68.6 0 0 309.25 235.20
  L 309.25 228.76
  Q 309.25 228.23 309.63 227.87
  C 324.66 213.43 329.86 196.60 331.37 176.31
  C 333.62 146.19 323.39 117.63 299.53 98.62
  C 266.63 72.38 219.59 76.32 191.20 107.46
  Q 170.03 130.68 168.67 162.99
  C 167.67 186.78 172.50 211.06 190.65 227.71
  A 1.08 1.06 21.5 0 1 191.00 228.50
  L 191.00 235.18
  A 1.14 1.12 -68.3 0 0 191.34 235.99
  L 196.49 241.06
  Q 197.00 241.56 196.32 241.78
  C 174.64 248.69 159.74 261.79 147.73 280.62
  Q 134.76 300.95 125.98 323.56
  Q 125.81 324.00 126.28 324.00
  L 149.69 324.00
  A 0.37 0.37 0.0 0 0 149.90 323.33
  L 148.95 322.67"
/>
<path stroke="#2b3333" vector-effect="non-scaling-stroke" d="
  M 350.10 323.79
  L 359.14 319.00
  A 0.60 0.60 0.0 0 0 359.41 318.24
  Q 352.81 302.75 343.75 288.96"
/>
<path stroke="#111415" vector-effect="non-scaling-stroke" d="
  M 343.75 288.96
  C 330.61 264.77 305.75 249.10 277.89 250.12
  Q 277.25 250.14 277.25 249.49
  L 277.25 243.60
  Q 277.25 243.26 276.91 243.32
  L 264.49 245.48
  A 1.64 1.63 85.2 0 0 263.13 247.10
  L 263.10 258.77"
/>
<path stroke="#2b3333" vector-effect="non-scaling-stroke" d="
  M 263.10 258.77
  L 263.03 290.32"
/>
<path stroke="#49264f" vector-effect="non-scaling-stroke" d="
  M 263.06 309.42
  L 263.03 323.89"
/>
<path stroke="#2b3333" vector-effect="non-scaling-stroke" d="
  M 259.87 323.73
  L 259.71 269.75"
/>
<path stroke="#111415" vector-effect="non-scaling-stroke" d="
  M 259.71 269.75
  L 259.82 247.40
  A 1.28 1.28 0.0 0 0 258.48 246.11
  L 253.84 246.31
  Q 253.27 246.34 253.24 246.91
  L 252.92 254.00
  A 2.12 1.25 74.0 0 1 252.68 254.93
  Q 252.48 255.27 252.10 255.26
  Q 251.36 255.24 251.36 255.98
  L 251.29 268.75"
/>
<path stroke="#2b3333" vector-effect="non-scaling-stroke" d="
  M 251.29 268.75
  L 251.25 323.76"
/>
<path stroke="#808080" vector-effect="non-scaling-stroke" d="
  M 248.47 323.87
  L 248.28 319.13"
/>
<path stroke="#2b3333" vector-effect="non-scaling-stroke" d="
  M 248.28 319.13
  L 248.78 268.29"
/>
<path stroke="#111415" vector-effect="non-scaling-stroke" d="
  M 248.78 268.29
  L 248.72 256.07
  Q 248.72 255.61 248.30 255.40
  L 247.42 254.97
  Q 247.00 254.76 246.99 254.30
  L 246.84 247.01
  Q 246.82 246.20 246.01 246.17
  L 240.84 246.00
  Q 240.27 245.98 240.27 246.54
  L 240.21 267.25"
/>
<path stroke="#2b3333" vector-effect="non-scaling-stroke" d="
  M 240.21 267.25
  L 239.94 322.90
  Q 239.94 323.17 240.07 323.41
  L 240.25 323.71"
/>
<path stroke="#49264f" vector-effect="non-scaling-stroke" d="
  M 237.25 323.91
  L 237.27 311.02"
/>
<path stroke="#2b3333" vector-effect="non-scaling-stroke" d="
  M 237.39 290.75
  L 237.48 258.02"
/>
<path stroke="#111415" vector-effect="non-scaling-stroke" d="
  M 237.48 258.02
  L 237.89 247.61
  A 1.93 1.92 -84.2 0 0 236.29 245.64
  L 223.62 243.45
  Q 223.10 243.36 223.09 243.88
  L 222.96 249.77
  Q 222.95 250.19 222.53 250.16
  C 190.68 248.29 165.13 269.42 152.04 296.75"
/>
<path stroke="#2b3333" vector-effect="non-scaling-stroke" d="
  M 152.04 296.75
  Q 145.55 306.94 140.94 318.12
  Q 140.74 318.61 141.21 318.84
  L 148.95 322.67"
/>
<path stroke="#3c4748" vector-effect="non-scaling-stroke" d="
  M 343.75 288.96
  C 320.94 270.24 292.87 260.45 263.10 258.77"
/>
<path stroke="#3c4748" vector-effect="non-scaling-stroke" d="
  M 259.71 269.75
  L 251.29 268.75"
/>
<path stroke="#abb2b3" vector-effect="non-scaling-stroke" d="
  M 248.28 319.13
  Q 247.44 305.77 247.35 292.49
  Q 247.28 282.03 247.22 271.52
  Q 247.21 271.00 246.70 271.00
  L 242.28 271.00
  Q 241.70 271.00 241.70 271.58
  L 242.12 323.51"
/>
<path stroke="#2b3333" vector-effect="non-scaling-stroke" d="
  M 321.91 323.84
  Q 323.22 314.26 324.95 305.16
  Q 324.98 304.97 324.93 304.83
  Q 324.87 304.69 324.78 304.62
  Q 324.43 304.35 324.25 304.74
  L 321.34 311.18"
/>
<path stroke="#3c4748" vector-effect="non-scaling-stroke" d="
  M 248.78 268.29
  Q 244.42 268.58 240.21 267.25"
/>
<path stroke="#3c4748" vector-effect="non-scaling-stroke" d="
  M 237.48 258.02
  C 204.34 256.92 174.51 273.17 152.04 296.75"
/>
<path stroke="#2b3333" vector-effect="non-scaling-stroke" d="
  M 177.06 304.17
  Q 175.89 303.45 175.97 302.02
  Q 176.01 301.38 175.60 301.17
  Q 175.14 300.93 175.21 301.44
  L 178.34 323.75"
/>
<path stroke="#6c7f80" vector-effect="non-scaling-stroke" d="
  M 232.17 331.34
  C 223.73 330.97 210.19 329.54 210.20 342.50
  Q 210.22 364.47 210.27 386.47
  Q 210.27 386.98 210.79 386.99
  C 220.56 387.09 232.44 388.94 232.62 375.20
  Q 232.92 353.57 232.69 331.88
  Q 232.68 331.36 232.17 331.34"
/>
<path stroke="#6c7f80" vector-effect="non-scaling-stroke" d="
  M 258.67 339.09
  C 261.33 339.14 262.18 340.37 262.41 342.96
  Q 264.35 364.75 266.06 386.56
  Q 266.09 387.00 266.54 387.00
  L 273.44 387.00
  Q 273.93 387.00 273.89 386.51
  Q 272.10 364.62 270.30 342.76
  Q 269.34 331.17 258.25 331.21
  Q 247.92 331.25 237.50 331.26
  Q 237.00 331.26 237.00 331.76
  L 237.00 386.50
  Q 237.00 387.00 237.50 387.00
  L 244.25 387.00
  Q 244.75 387.00 244.75 386.50
  L 244.75 339.75
  Q 244.75 339.00 245.50 339.00
  L 249.62 339.00
  Q 250.25 339.00 250.25 339.62
  L 250.25 386.50
  Q 250.25 387.00 250.75 387.00
  L 257.50 387.00
  Q 258.00 387.00 258.00 386.50
  L 258.00 339.75
  A 0.66 0.65 -89.2 0 1 258.67 339.09"
/>
<path stroke="#6c7f80" vector-effect="non-scaling-stroke" d="
  M 284.52 339.00
  L 290.31 339.00
  Q 290.85 339.00 290.84 339.55
  L 290.72 344.10
  Q 290.70 344.75 291.35 344.75
  L 298.00 344.75
  Q 298.50 344.75 298.50 344.25
  L 298.50 331.75
  Q 298.50 331.25 298.00 331.25
  L 276.76 331.25
  Q 276.26 331.25 276.26 331.75
  Q 276.22 352.56 276.26 373.36
  C 276.30 388.84 286.15 387.02 298.00 387.00
  Q 298.50 386.99 298.50 386.49
  L 298.50 355.75
  Q 298.50 355.25 298.00 355.25
  L 288.00 355.25
  Q 287.50 355.25 287.50 355.75
  L 287.50 362.50
  Q 287.50 363.00 288.00 363.00
  L 290.12 363.00
  Q 290.75 363.00 290.75 363.63
  L 290.75 378.73
  Q 290.75 379.16 290.31 379.19
  C 288.09 379.36 284.05 379.55 284.04 376.94
  Q 283.93 358.22 284.03 339.49
  Q 284.03 339.00 284.52 339.00"
/>
<path stroke="#b4a4ce" vector-effect="non-scaling-stroke" d="
  M 151.00 350.81
  A 0.31 0.31 0.0 0 1 150.74 350.62
  L 143.92 334.46
  A 0.31 0.31 0.0 0 0 143.34 334.46
  L 136.52 350.62
  A 0.31 0.31 0.0 0 1 136.26 350.81
  L 118.78 352.30
  A 0.31 0.31 0.0 0 0 118.60 352.85
  L 131.87 364.33
  A 0.31 0.31 0.0 0 1 131.97 364.64
  L 127.99 381.73
  A 0.31 0.31 0.0 0 0 128.45 382.06
  L 143.47 373.00
  A 0.31 0.31 0.0 0 1 143.79 373.00
  L 158.81 382.06
  A 0.31 0.31 0.0 0 0 159.27 381.73
  L 155.29 364.64
  A 0.31 0.31 0.0 0 1 155.39 364.33
  L 168.66 352.85
  A 0.31 0.31 0.0 0 0 168.48 352.30
  L 151.00 350.81"
/>
<path stroke="#b4a4ce" vector-effect="non-scaling-stroke" d="
  M 363.63 353.59
  A 0.30 0.30 0.0 0 1 363.38 353.40
  L 356.56 337.16
  A 0.30 0.30 0.0 0 0 356.00 337.16
  L 349.18 353.40
  A 0.30 0.30 0.0 0 1 348.93 353.59
  L 331.37 355.06
  A 0.30 0.30 0.0 0 0 331.20 355.58
  L 344.54 367.09
  A 0.30 0.30 0.0 0 1 344.64 367.39
  L 340.61 384.54
  A 0.30 0.30 0.0 0 0 341.06 384.86
  L 356.12 375.73
  A 0.30 0.30 0.0 0 1 356.44 375.73
  L 371.50 384.86
  A 0.30 0.30 0.0 0 0 371.95 384.54
  L 367.92 367.39
  A 0.30 0.30 0.0 0 1 368.02 367.09
  L 381.36 355.58
  A 0.30 0.30 0.0 0 0 381.19 355.06
  L 363.63 353.59"
/>
<path stroke="#b4a4ce" vector-effect="non-scaling-stroke" d="
  M 211.47 428.36
  L 211.39 422.20
  Q 211.38 421.52 210.70 421.51
  L 208.05 421.48
  Q 207.50 421.48 207.50 422.02
  L 207.49 432.24
  Q 207.49 432.81 208.05 432.87
  C 212.13 433.33 217.50 433.41 218.60 429.09
  C 220.66 421.01 216.08 416.83 211.57 411.15
  A 1.79 1.79 0.0 0 1 212.97 408.25
  L 214.30 408.25
  Q 215.11 408.25 215.03 409.06
  L 214.89 410.44
  A 0.74 0.73 -87.2 0 0 215.62 411.25
  L 218.34 411.25
  A 0.65 0.65 0.0 0 0 218.99 410.60
  L 219.00 404.77
  A 0.51 0.50 0.6 0 0 218.49 404.26
  C 213.79 404.23 206.32 403.66 207.59 411.03
  C 208.70 417.46 216.36 419.15 214.99 427.01
  Q 214.51 429.73 211.82 428.84
  Q 211.48 428.73 211.47 428.36"
/>
<path stroke="#b4a4ce" vector-effect="non-scaling-stroke" d="
  M 225.26 408.33
  A 0.34 0.34 0.0 0 1 225.60 408.00
  L 226.66 408.00
  A 0.34 0.34 0.0 0 1 227.00 408.34
  L 227.00 432.66
  A 0.34 0.34 0.0 0 0 227.34 433.00
  L 230.69 433.00
  A 0.34 0.34 0.0 0 0 231.03 432.66
  L 231.28 408.31
  A 0.34 0.34 0.0 0 1 231.64 407.98
  L 232.69 408.06
  A 0.34 0.34 0.0 0 1 233.00 408.40
  L 233.00 420.16
  A 0.34 0.34 0.0 0 0 233.34 420.50
  L 236.66 420.50
  A 0.34 0.34 0.0 0 0 237.00 420.16
  L 237.00 404.59
  A 0.34 0.34 0.0 0 0 236.66 404.25
  L 221.59 404.25
  A 0.34 0.34 0.0 0 0 221.25 404.59
  L 221.25 414.72
  A 0.34 0.34 0.0 0 0 221.58 415.06
  L 224.78 415.13
  A 0.34 0.34 0.0 0 0 225.13 414.80
  L 225.26 408.33"
/>
<path stroke="#b4a4ce" vector-effect="non-scaling-stroke" d="
  M 240.52 408.25
  A 0.62 0.62 0.0 0 1 241.14 408.89
  Q 240.75 419.35 241.29 427.83
  C 241.65 433.58 247.95 433.45 252.24 432.85
  Q 252.75 432.78 252.75 432.26
  L 252.75 404.87
  Q 252.75 404.25 252.12 404.25
  L 249.23 404.25
  Q 248.72 404.25 248.72 404.76
  L 248.76 428.43
  Q 248.77 429.15 248.06 429.05
  L 245.92 428.78
  Q 245.12 428.67 245.11 427.86
  L 244.97 404.86
  Q 244.96 404.25 244.36 404.25
  L 240.04 404.25
  Q 239.58 404.25 239.55 404.71
  L 239.38 407.67
  A 0.54 0.54 0.0 0 0 239.92 408.25
  L 240.52 408.25"
/>
<path stroke="#b4a4ce" vector-effect="non-scaling-stroke" d="
  M 256.64 428.57
  Q 254.42 429.76 255.37 432.53
  Q 255.54 433.00 256.04 433.00
  L 268.49 433.00
  Q 269.11 433.00 269.07 432.38
  Q 268.38 421.30 267.27 410.27
  C 266.55 403.18 260.95 404.19 255.79 404.26
  Q 255.34 404.27 255.31 404.72
  L 255.11 407.63
  A 0.58 0.58 0.0 0 0 255.69 408.25
  L 256.38 408.25
  Q 257.00 408.25 257.00 408.87
  L 257.00 427.96
  A 0.70 0.70 0.0 0 1 256.64 428.57"
/>
<path stroke="#b4a4ce" vector-effect="non-scaling-stroke" d="
  M 273.00 409.00
  L 273.00 427.78
  Q 273.00 428.38 272.52 428.73
  Q 270.77 430.04 271.62 432.54
  Q 271.78 433.00 272.27 433.00
  L 277.85 433.00
  Q 278.51 433.00 278.51 432.34
  L 278.51 429.70
  Q 278.51 429.29 278.13 429.11
  L 277.54 428.83
  Q 277.00 428.58 277.00 427.99
  L 277.00 409.00
  Q 277.00 408.25 277.75 408.25
  L 278.11 408.25
  A 0.57 0.57 0.0 0 0 278.68 407.63
  L 278.43 404.70
  A 0.49 0.48 -1.9 0 0 277.94 404.25
  L 272.04 404.25
  Q 271.58 404.25 271.55 404.71
  L 271.38 407.67
  A 0.54 0.54 0.0 0 0 271.92 408.25
  L 272.25 408.25
  Q 273.00 408.25 273.00 409.00"
/>
<path stroke="#b4a4ce" vector-effect="non-scaling-stroke" d="
  M 292.72 409.80
  A 5.50 5.50 0.0 0 0 287.22 404.30
  L 286.76 404.30
  A 5.50 5.50 0.0 0 0 281.26 409.80
  L 281.26 427.46
  A 5.50 5.50 0.0 0 0 286.76 432.96
  L 287.22 432.96
  A 5.50 5.50 0.0 0 0 292.72 427.46
  L 292.72 409.80"
/>
<path stroke="#6c7f80" vector-effect="non-scaling-stroke" d="
  M 242.57 94.90
  C 206.40 98.87 181.51 131.40 181.73 166.97
  C 181.83 184.49 184.27 202.11 196.86 215.39
  C 203.33 222.21 217.10 224.11 225.98 225.10
  Q 257.19 228.57 288.01 222.85
  C 313.94 218.04 319.02 186.82 318.63 165.50
  C 317.88 124.67 285.03 90.23 242.57 94.90"
/>
<path stroke="#6c7f80" vector-effect="non-scaling-stroke" d="
  M 242.52 238.07
  L 257.25 238.01"
/>
<path stroke="#2b3333" vector-effect="non-scaling-stroke" d="
  M 257.25 238.01
  C 270.99 238.11 285.96 234.00 297.27 226.23
  A 1.11 1.08 -17.7 0 0 297.75 225.33
  L 297.75 223.97
  Q 297.75 223.09 296.99 223.53
  Q 278.82 234.08 257.11 234.68"
/>
<path stroke="#6c7f80" vector-effect="non-scaling-stroke" d="
  M 257.11 234.68
  Q 249.93 235.50 242.57 234.66"
/>
<path stroke="#2b3333" vector-effect="non-scaling-stroke" d="
  M 242.57 234.66
  Q 221.14 234.02 203.15 223.40
  Q 202.75 223.16 202.61 223.61
  Q 201.96 225.72 203.54 226.73
  Q 220.90 237.79 242.52 238.07"
/>
<path stroke="#97b1b3" vector-effect="non-scaling-stroke" d="
  M 242.57 234.66
  L 242.52 238.07"
/>
<path stroke="#97b1b3" vector-effect="non-scaling-stroke" d="
  M 257.25 238.01
  Q 257.94 236.70 257.11 234.68"
/>
<path stroke="#6c7f80" vector-effect="non-scaling-stroke" d="
  M 242.56 232.77
  L 257.50 232.71"
/>
<path stroke="#2b3333" vector-effect="non-scaling-stroke" d="
  M 257.50 232.71
  Q 272.45 232.36 286.14 226.90
  Q 290.28 225.25 285.89 226.04
  Q 272.91 228.37 257.70 229.14"
/>
<path stroke="#6c7f80" vector-effect="non-scaling-stroke" d="
  M 257.70 229.14
  L 242.96 229.15"
/>
<path stroke="#2b3333" vector-effect="non-scaling-stroke" d="
  M 242.96 229.15
  Q 227.70 228.43 212.74 225.82
  A 0.25 0.25 0.0 0 0 212.60 226.29
  Q 226.81 232.28 242.56 232.77"
/>
<path stroke="#97b1b3" vector-effect="non-scaling-stroke" d="
  M 242.96 229.15
  L 242.56 232.77"
/>
<path stroke="#97b1b3" vector-effect="non-scaling-stroke" d="
  M 257.50 232.71
  L 257.70 229.14"
/>
<path stroke="#6c7f80" vector-effect="non-scaling-stroke" d="
  M 242.76 243.44
  L 257.24 243.44"
/>
<path stroke="#2b3333" vector-effect="non-scaling-stroke" d="
  M 257.24 243.44
  C 270.97 242.87 285.76 239.47 296.76 231.53
  C 297.64 230.89 297.98 230.04 297.72 229.02
  Q 297.59 228.51 297.13 228.78
  Q 278.67 239.53 256.94 240.13"
/>
<path stroke="#6c7f80" vector-effect="non-scaling-stroke" d="
  M 256.94 240.13
  Q 249.98 240.99 242.74 240.21"
/>
<path stroke="#2b3333" vector-effect="non-scaling-stroke" d="
  M 242.74 240.21
  C 228.60 239.22 215.28 236.23 203.09 228.69
  Q 202.62 228.40 202.42 228.91
  Q 201.98 230.06 203.05 231.00
  C 212.56 239.39 230.50 242.94 242.76 243.44"
/>
<path stroke="#97b1b3" vector-effect="non-scaling-stroke" d="
  M 242.74 240.21
  L 242.76 243.44"
/>
<path stroke="#97b1b3" vector-effect="non-scaling-stroke" d="
  M 257.24 243.44
  Q 258.09 241.82 256.94 240.13"
/>
<path stroke="#ebfeff" vector-effect="non-scaling-stroke" d="
  M 256.94 102.96
  C 242.69 102.65 226.72 105.37 216.96 116.54
  Q 214.62 119.21 217.87 117.79
  Q 236.59 109.63 256.98 112.03
  A 1.11 1.10 -88.0 0 0 258.21 110.88
  L 257.92 103.92
  A 1.00 1.00 0.0 0 0 256.94 102.96"
/>
<path stroke="#ebfeff" vector-effect="non-scaling-stroke" d="
  M 274.39 107.57
  L 272.29 113.31
  A 0.79 0.79 0.0 0 0 272.81 114.35
  L 286.36 118.35
  A 0.45 0.44 -9.3 0 0 286.85 117.67
  Q 282.22 110.98 274.96 107.34
  A 0.41 0.41 0.0 0 0 274.39 107.57"
/>
<path stroke="#6c7f80" vector-effect="non-scaling-stroke" d="
  M 303.98 134.16
  C 274.19 111.38 225.92 112.30 196.33 134.10
  Q 194.55 135.41 193.69 137.38
  Q 181.27 165.58 193.40 194.01
  Q 194.33 196.17 196.18 197.59
  C 225.72 220.33 274.19 219.78 303.90 197.84
  Q 305.76 196.46 306.68 194.35
  Q 319.07 165.97 306.69 137.60
  Q 305.79 135.54 303.98 134.16"
/>
<path stroke="#49264f" vector-effect="non-scaling-stroke" d="
  M 203.18 198.82
  C 228.91 216.26 271.27 215.28 297.25 198.71"
/>
<path stroke="#21152f" vector-effect="non-scaling-stroke" d="
  M 297.25 198.71
  Q 302.68 196.60 304.69 192.20
  C 311.99 176.18 311.72 155.33 304.36 139.26
  Q 303.39 137.15 301.47 135.77
  C 275.42 117.06 239.50 116.25 210.81 128.54
  C 206.45 130.41 197.46 135.17 195.45 140.10
  Q 185.08 165.61 195.13 191.11
  C 196.74 195.18 199.39 197.13 203.18 198.82"
/>
<path stroke="#6a3a7e" vector-effect="non-scaling-stroke" d="
  M 297.25 198.71
  Q 300.29 183.53 298.16 168.24
  Q 298.08 167.71 297.63 167.42
  Q 287.05 160.66 275.23 157.84"
/>
<path stroke="#8d93af" vector-effect="non-scaling-stroke" d="
  M 275.23 157.84
  L 271.78 157.17"
/>
<path stroke="#6a3a7e" vector-effect="non-scaling-stroke" d="
  M 271.78 157.17
  Q 264.40 154.73 256.75 155.51"
/>
<path stroke="#8d93af" vector-effect="non-scaling-stroke" d="
  M 256.75 155.51
  L 250.23 139.74
  A 0.31 0.31 0.0 0 0 249.65 139.74
  L 243.07 155.65"
/>
<path stroke="#6a3a7e" vector-effect="non-scaling-stroke" d="
  M 243.07 155.65
  Q 235.70 154.53 228.96 157.19"
/>
<path stroke="#8d93af" vector-effect="non-scaling-stroke" d="
  M 228.96 157.19
  L 224.74 157.82"
/>
<path stroke="#6a3a7e" vector-effect="non-scaling-stroke" d="
  M 224.74 157.82
  L 211.71 162.54"
/>
<path stroke="#a194af" vector-effect="non-scaling-stroke" d="
  M 211.71 162.54
  Q 212.18 151.24 214.64 140.64
  A 0.36 0.35 -21.2 0 0 214.00 140.36
  Q 205.92 151.87 205.96 165.75"
/>
<path stroke="#6a3a7e" vector-effect="non-scaling-stroke" d="
  M 205.96 165.75
  Q 204.00 166.23 202.57 167.55
  A 1.51 1.47 73.7 0 0 202.11 168.42
  Q 199.84 183.52 203.18 198.82"
/>
<path stroke="#b4a4ce" vector-effect="non-scaling-stroke" d="
  M 256.75 155.51
  Q 263.91 157.37 271.78 157.17"
/>
<path stroke="#b4a4ce" vector-effect="non-scaling-stroke" d="
  M 275.23 157.84
  L 261.88 169.65
  Q 261.54 169.96 261.64 170.40
  L 265.54 187.40
  A 0.28 0.28 0.0 0 1 265.12 187.70
  L 250.40 178.71
  Q 250.00 178.47 249.60 178.71
  L 234.93 187.58
  Q 234.26 187.98 234.44 187.23
  L 238.29 170.52
  Q 238.42 169.98 238.01 169.62
  L 224.74 157.82"
/>
<path stroke="#b4a4ce" vector-effect="non-scaling-stroke" d="
  M 228.96 157.19
  Q 236.31 157.35 243.07 155.65"
/>
<path stroke="#c8a5ce" vector-effect="non-scaling-stroke" d="
  M 211.71 162.54
  Q 211.57 176.23 214.85 189.46
  A 0.28 0.28 0.0 0 1 214.36 189.70
  Q 206.15 179.16 205.96 165.75"
/>
<path stroke="#abb2b3" vector-effect="non-scaling-stroke" d="
  M 216.54 267.91
  C 196.17 266.10 176.58 277.75 166.71 295.30
  A 0.34 0.34 0.0 0 0 167.23 295.72
  Q 188.93 276.73 216.61 268.66
  Q 218.55 268.09 216.54 267.91"
/>
<path stroke="#6c7f80" vector-effect="non-scaling-stroke" d="
  M 224.40 339.45
  C 220.36 338.07 218.41 339.33 218.29 343.50
  Q 217.82 361.04 218.05 378.61
  Q 218.05 379.13 218.57 379.20
  Q 221.36 379.60 223.91 378.55
  A 0.98 0.97 -7.0 0 0 224.51 377.79
  Q 225.14 373.79 225.09 372.50
  Q 224.54 356.26 224.81 340.03
  Q 224.81 339.59 224.40 339.45"
/>
<path stroke="#b4a4ce" vector-effect="non-scaling-stroke" d="
  M 261.40 429.06
  L 264.40 428.92
  A 0.24 0.24 0.0 0 0 264.63 428.67
  L 264.62 428.52
  A 20.31 1.33 87.5 0 0 262.41 408.29
  L 261.59 408.33
  A 20.31 1.33 87.5 0 0 261.15 428.68
  L 261.15 428.83
  A 0.24 0.24 0.0 0 0 261.40 429.06"
/>
<path stroke="#b4a4ce" vector-effect="non-scaling-stroke" d="
  M 288.73 409.80
  A 1.47 1.47 0.0 0 0 287.26 408.33
  L 286.72 408.33
  A 1.47 1.47 0.0 0 0 285.25 409.80
  L 285.25 427.32
  A 1.47 1.47 0.0 0 0 286.72 428.79
  L 287.26 428.79
  A 1.47 1.47 0.0 0 0 288.73 427.32
  L 288.73 409.80"
/>
</g>
<path fill="#000000" d="
  M 0.00 0.00
  L 500.00 0.00
  L 500.00 500.00
  L 0.00 500.00
  L 0.00 0.00
  Z
  M 203.31 70.41
  L 192.36 74.78
  L 181.13 80.06
  L 171.20 86.11
  Q 156.14 95.78 143.88 109.67
  Q 131.31 123.92 123.16 140.43
  L 122.27 142.49
  L 120.41 146.54
  L 116.84 155.61
  L 113.85 164.70
  L 112.62 169.44
  L 110.29 181.78
  Q 108.51 193.87 108.85 203.80
  L 109.04 214.00
  C 94.25 222.32 14.67 268.46 27.75 290.59
  C 39.50 310.46 110.52 295.14 131.41 290.25
  Q 132.20 290.06 131.82 290.78
  Q 123.33 306.68 116.77 323.48
  Q 116.57 324.00 116.01 324.00
  L 72.78 324.00
  Q 72.37 324.00 72.09 324.29
  L 46.89 349.48
  Q 46.52 349.86 46.52 350.39
  L 46.47 371.14
  Q 46.47 371.59 46.78 371.91
  L 71.78 396.90
  A 0.95 0.94 67.8 0 0 72.46 397.19
  L 121.69 397.39
  Q 122.39 397.39 121.90 397.90
  L 107.37 412.75
  Q 107.00 413.13 107.00 413.66
  L 107.00 424.11
  Q 107.00 424.86 107.52 425.39
  L 124.36 442.57
  A 1.47 1.44 67.1 0 0 125.39 443.00
  L 374.62 443.00
  Q 375.16 443.00 375.54 442.62
  L 392.63 425.43
  Q 393.00 425.06 393.00 424.53
  L 393.00 413.48
  A 1.28 1.27 -67.3 0 0 392.64 412.59
  L 378.09 397.92
  Q 377.74 397.56 378.24 397.55
  L 427.91 397.22
  Q 428.40 397.21 428.75 396.87
  L 453.38 371.92
  Q 453.75 371.55 453.75 371.03
  L 453.75 350.42
  Q 453.75 349.88 453.38 349.50
  L 428.65 324.45
  Q 428.20 324.00 427.57 324.00
  L 383.49 324.00
  Q 382.97 324.00 382.79 323.50
  C 377.09 307.59 371.23 296.00 362.60 280.78
  Q 369.50 270.45 374.63 259.39
  L 379.98 246.41
  Q 384.53 233.25 386.14 218.87
  L 386.71 211.98
  Q 387.96 201.77 386.41 190.96
  C 401.57 182.65 481.28 136.53 468.48 113.92
  C 456.81 93.30 377.13 111.36 357.57 116.38
  C 334.60 88.01 299.76 66.87 262.79 63.85
  Q 232.40 60.51 203.31 70.41
  Z"
/>
<path fill="#a988bf" d="
  M 262.79 63.85
  Q 262.75 64.72 260.79 64.64
  A 0.29 0.28 76.3 0 0 260.53 65.07
  L 260.74 65.44
  Q 260.91 65.72 260.72 65.99
  Q 259.16 68.11 258.74 70.74
  Q 258.65 71.28 259.03 71.66
  L 259.66 72.29
  Q 259.87 72.49 259.57 72.50
  Q 259.43 72.50 259.28 72.49
  Q 258.91 72.47 259.20 72.71
  L 260.02 73.37
  Q 237.11 71.07 216.70 79.32
  Q 209.52 75.42 203.31 70.41
  Q 232.40 60.51 262.79 63.85
  Z"
/>
<path fill="#9b64ab" d="
  M 262.79 63.85
  C 299.76 66.87 334.60 88.01 357.57 116.38
  Q 359.14 119.82 362.00 121.79
  L 363.17 124.77
  L 328.21 119.91
  C 313.80 94.31 289.43 76.83 260.02 73.37
  L 259.20 72.71
  Q 258.91 72.47 259.28 72.49
  Q 259.43 72.50 259.57 72.50
  Q 259.87 72.49 259.66 72.29
  L 259.03 71.66
  Q 258.65 71.28 258.74 70.74
  Q 259.16 68.11 260.72 65.99
  Q 260.91 65.72 260.74 65.44
  L 260.53 65.07
  A 0.29 0.28 76.3 0 1 260.79 64.64
  Q 262.75 64.72 262.79 63.85
  Z"
/>
<path fill="#c0c2de" d="
  M 203.31 70.41
  Q 209.52 75.42 216.70 79.32
  L 206.55 84.27
  L 192.36 74.78
  L 203.31 70.41
  Z"
/>
<path fill="#d7fdff" d="
  M 260.02 73.37
  C 289.43 76.83 313.80 94.31 328.21 119.91
  L 333.59 131.28
  L 337.59 144.48
  L 338.40 148.18
  L 340.03 166.31
  Q 339.99 177.91 338.50 188.96
  L 336.92 196.64
  Q 334.80 204.92 331.03 213.00
  Q 330.80 213.49 331.28 213.25
  L 366.00 195.38
  L 376.84 189.35
  L 386.00 183.96
  Q 408.76 170.59 428.68 153.38
  C 433.14 149.52 437.91 144.25 440.91 139.92
  C 457.96 115.23 422.37 114.63 409.20 115.35
  Q 385.33 116.66 362.00 121.79
  Q 359.14 119.82 357.57 116.38
  C 377.13 111.36 456.81 93.30 468.48 113.92
  C 481.28 136.53 401.57 182.65 386.41 190.96
  L 374.78 197.43
  L 343.43 213.51
  L 331.32 219.37
  C 324.88 221.54 322.47 226.56 318.10 231.34
  A 1.33 1.30 -24.1 0 0 317.75 232.23
  L 317.75 237.28
  Q 317.75 237.85 318.25 238.12
  L 328.82 243.74
  L 341.00 253.31
  L 348.22 260.48
  Q 356.06 269.89 362.60 280.78
  C 371.23 296.00 377.09 307.59 382.79 323.50
  Q 382.97 324.00 383.49 324.00
  L 427.57 324.00
  Q 428.20 324.00 428.65 324.45
  L 453.38 349.50
  Q 453.75 349.88 453.75 350.42
  L 453.75 371.03
  Q 453.75 371.55 453.38 371.92
  L 428.75 396.87
  Q 428.40 397.21 427.91 397.22
  L 378.24 397.55
  Q 377.74 397.56 378.09 397.92
  L 392.64 412.59
  A 1.28 1.27 -67.3 0 1 393.00 413.48
  L 393.00 424.53
  Q 393.00 425.06 392.63 425.43
  L 375.54 442.62
  Q 375.16 443.00 374.62 443.00
  L 125.39 443.00
  A 1.47 1.44 67.1 0 1 124.36 442.57
  L 107.52 425.39
  Q 107.00 424.86 107.00 424.11
  L 107.00 413.66
  Q 107.00 413.13 107.37 412.75
  L 121.90 397.90
  Q 122.39 397.39 121.69 397.39
  L 72.46 397.19
  A 0.95 0.94 67.8 0 1 71.78 396.90
  L 46.78 371.91
  Q 46.47 371.59 46.47 371.14
  L 46.52 350.39
  Q 46.52 349.86 46.89 349.48
  L 72.09 324.29
  Q 72.37 324.00 72.78 324.00
  L 116.01 324.00
  Q 116.57 324.00 116.77 323.48
  Q 123.33 306.68 131.82 290.78
  Q 132.20 290.06 131.41 290.25
  C 110.52 295.14 39.50 310.46 27.75 290.59
  C 14.67 268.46 94.25 222.32 109.04 214.00
  L 109.72 220.99
  C 93.34 230.62 72.96 243.14 58.35 257.57
  Q 53.31 262.55 51.25 269.01
  C 45.92 285.73 64.00 287.36 75.75 287.29
  Q 104.44 287.13 132.86 281.42
  L 137.36 280.35
  L 140.39 276.13
  L 146.36 267.57
  L 153.99 258.42
  Q 161.55 250.53 171.87 243.65
  L 182.16 238.04
  Q 182.50 237.85 182.50 237.46
  L 182.50 232.23
  A 1.30 1.30 0.0 0 0 182.12 231.31
  Q 176.36 225.51 172.09 218.73
  L 165.24 203.98
  L 162.27 192.89
  L 160.48 178.96
  L 160.06 165.71
  L 160.18 161.08
  Q 160.73 159.23 160.46 157.50
  Q 162.30 140.25 169.70 124.36
  C 175.53 113.18 180.65 106.58 189.27 97.26
  L 195.63 91.74
  L 206.55 84.27
  L 216.70 79.32
  Q 237.11 71.07 260.02 73.37
  Z
  M 148.95 322.67
  Q 154.22 317.26 160.60 312.96
  Q 161.08 312.64 161.32 313.16
  L 166.12 323.35
  A 0.98 0.96 -12.4 0 0 167.02 323.91
  L 178.34 323.75
  L 185.17 323.79
  Q 185.78 323.80 185.54 323.24
  L 177.06 304.17
  Q 204.15 293.72 232.77 290.95
  Q 234.85 290.75 237.39 290.75
  L 237.27 311.02
  Q 214.15 313.74 193.20 323.27
  Q 192.24 323.71 193.29 323.71
  L 237.25 323.91
  Q 238.77 324.23 240.25 323.71
  Q 241.45 323.94 242.12 323.51
  Q 242.74 324.37 243.73 324.09
  Q 244.12 323.98 244.53 323.97
  L 248.47 323.87
  Q 250.06 324.24 251.25 323.76
  L 259.87 323.73
  Q 261.11 324.26 263.03 323.89
  L 307.96 323.90
  Q 308.67 323.90 308.11 323.47
  C 296.44 314.34 279.29 311.48 263.06 309.42
  L 263.03 290.32
  C 284.88 292.24 302.79 299.92 321.34 311.18
  L 315.86 323.29
  Q 315.57 323.91 316.25 323.90
  L 321.91 323.84
  L 330.56 323.92
  Q 331.18 323.93 331.39 323.35
  L 332.72 319.75
  A 0.70 0.70 0.0 0 1 333.81 319.43
  L 339.32 323.69
  A 1.35 1.31 -25.8 0 0 340.17 323.97
  L 350.10 323.79
  L 373.08 323.85
  Q 374.42 323.85 373.92 322.60
  Q 363.40 296.41 348.43 274.32
  Q 332.63 251.01 303.79 241.82
  A 0.39 0.39 0.0 0 1 303.63 241.17
  L 308.92 235.99
  A 1.11 1.08 68.6 0 0 309.25 235.20
  L 309.25 228.76
  Q 309.25 228.23 309.63 227.87
  C 324.66 213.43 329.86 196.60 331.37 176.31
  C 333.62 146.19 323.39 117.63 299.53 98.62
  C 266.63 72.38 219.59 76.32 191.20 107.46
  Q 170.03 130.68 168.67 162.99
  C 167.67 186.78 172.50 211.06 190.65 227.71
  A 1.08 1.06 21.5 0 1 191.00 228.50
  L 191.00 235.18
  A 1.14 1.12 -68.3 0 0 191.34 235.99
  L 196.49 241.06
  Q 197.00 241.56 196.32 241.78
  C 174.64 248.69 159.74 261.79 147.73 280.62
  Q 134.76 300.95 125.98 323.56
  Q 125.81 324.00 126.28 324.00
  L 149.69 324.00
  A 0.37 0.37 0.0 0 0 149.90 323.33
  L 148.95 322.67
  Z
  M 232.17 331.34
  C 223.73 330.97 210.19 329.54 210.20 342.50
  Q 210.22 364.47 210.27 386.47
  Q 210.27 386.98 210.79 386.99
  C 220.56 387.09 232.44 388.94 232.62 375.20
  Q 232.92 353.57 232.69 331.88
  Q 232.68 331.36 232.17 331.34
  Z
  M 258.67 339.09
  C 261.33 339.14 262.18 340.37 262.41 342.96
  Q 264.35 364.75 266.06 386.56
  Q 266.09 387.00 266.54 387.00
  L 273.44 387.00
  Q 273.93 387.00 273.89 386.51
  Q 272.10 364.62 270.30 342.76
  Q 269.34 331.17 258.25 331.21
  Q 247.92 331.25 237.50 331.26
  Q 237.00 331.26 237.00 331.76
  L 237.00 386.50
  Q 237.00 387.00 237.50 387.00
  L 244.25 387.00
  Q 244.75 387.00 244.75 386.50
  L 244.75 339.75
  Q 244.75 339.00 245.50 339.00
  L 249.62 339.00
  Q 250.25 339.00 250.25 339.62
  L 250.25 386.50
  Q 250.25 387.00 250.75 387.00
  L 257.50 387.00
  Q 258.00 387.00 258.00 386.50
  L 258.00 339.75
  A 0.66 0.65 -89.2 0 1 258.67 339.09
  Z
  M 284.52 339.00
  L 290.31 339.00
  Q 290.85 339.00 290.84 339.55
  L 290.72 344.10
  Q 290.70 344.75 291.35 344.75
  L 298.00 344.75
  Q 298.50 344.75 298.50 344.25
  L 298.50 331.75
  Q 298.50 331.25 298.00 331.25
  L 276.76 331.25
  Q 276.26 331.25 276.26 331.75
  Q 276.22 352.56 276.26 373.36
  C 276.30 388.84 286.15 387.02 298.00 387.00
  Q 298.50 386.99 298.50 386.49
  L 298.50 355.75
  Q 298.50 355.25 298.00 355.25
  L 288.00 355.25
  Q 287.50 355.25 287.50 355.75
  L 287.50 362.50
  Q 287.50 363.00 288.00 363.00
  L 290.12 363.00
  Q 290.75 363.00 290.75 363.63
  L 290.75 378.73
  Q 290.75 379.16 290.31 379.19
  C 288.09 379.36 284.05 379.55 284.04 376.94
  Q 283.93 358.22 284.03 339.49
  Q 284.03 339.00 284.52 339.00
  Z
  M 151.00 350.81
  A 0.31 0.31 0.0 0 1 150.74 350.62
  L 143.92 334.46
  A 0.31 0.31 0.0 0 0 143.34 334.46
  L 136.52 350.62
  A 0.31 0.31 0.0 0 1 136.26 350.81
  L 118.78 352.30
  A 0.31 0.31 0.0 0 0 118.60 352.85
  L 131.87 364.33
  A 0.31 0.31 0.0 0 1 131.97 364.64
  L 127.99 381.73
  A 0.31 0.31 0.0 0 0 128.45 382.06
  L 143.47 373.00
  A 0.31 0.31 0.0 0 1 143.79 373.00
  L 158.81 382.06
  A 0.31 0.31 0.0 0 0 159.27 381.73
  L 155.29 364.64
  A 0.31 0.31 0.0 0 1 155.39 364.33
  L 168.66 352.85
  A 0.31 0.31 0.0 0 0 168.48 352.30
  L 151.00 350.81
  Z
  M 363.63 353.59
  A 0.30 0.30 0.0 0 1 363.38 353.40
  L 356.56 337.16
  A 0.30 0.30 0.0 0 0 356.00 337.16
  L 349.18 353.40
  A 0.30 0.30 0.0 0 1 348.93 353.59
  L 331.37 355.06
  A 0.30 0.30 0.0 0 0 331.20 355.58
  L 344.54 367.09
  A 0.30 0.30 0.0 0 1 344.64 367.39
  L 340.61 384.54
  A 0.30 0.30 0.0 0 0 341.06 384.86
  L 356.12 375.73
  A 0.30 0.30 0.0 0 1 356.44 375.73
  L 371.50 384.86
  A 0.30 0.30 0.0 0 0 371.95 384.54
  L 367.92 367.39
  A 0.30 0.30 0.0 0 1 368.02 367.09
  L 381.36 355.58
  A 0.30 0.30 0.0 0 0 381.19 355.06
  L 363.63 353.59
  Z
  M 211.47 428.36
  L 211.39 422.20
  Q 211.38 421.52 210.70 421.51
  L 208.05 421.48
  Q 207.50 421.48 207.50 422.02
  L 207.49 432.24
  Q 207.49 432.81 208.05 432.87
  C 212.13 433.33 217.50 433.41 218.60 429.09
  C 220.66 421.01 216.08 416.83 211.57 411.15
  A 1.79 1.79 0.0 0 1 212.97 408.25
  L 214.30 408.25
  Q 215.11 408.25 215.03 409.06
  L 214.89 410.44
  A 0.74 0.73 -87.2 0 0 215.62 411.25
  L 218.34 411.25
  A 0.65 0.65 0.0 0 0 218.99 410.60
  L 219.00 404.77
  A 0.51 0.50 0.6 0 0 218.49 404.26
  C 213.79 404.23 206.32 403.66 207.59 411.03
  C 208.70 417.46 216.36 419.15 214.99 427.01
  Q 214.51 429.73 211.82 428.84
  Q 211.48 428.73 211.47 428.36
  Z
  M 225.26 408.33
  A 0.34 0.34 0.0 0 1 225.60 408.00
  L 226.66 408.00
  A 0.34 0.34 0.0 0 1 227.00 408.34
  L 227.00 432.66
  A 0.34 0.34 0.0 0 0 227.34 433.00
  L 230.69 433.00
  A 0.34 0.34 0.0 0 0 231.03 432.66
  L 231.28 408.31
  A 0.34 0.34 0.0 0 1 231.64 407.98
  L 232.69 408.06
  A 0.34 0.34 0.0 0 1 233.00 408.40
  L 233.00 420.16
  A 0.34 0.34 0.0 0 0 233.34 420.50
  L 236.66 420.50
  A 0.34 0.34 0.0 0 0 237.00 420.16
  L 237.00 404.59
  A 0.34 0.34 0.0 0 0 236.66 404.25
  L 221.59 404.25
  A 0.34 0.34 0.0 0 0 221.25 404.59
  L 221.25 414.72
  A 0.34 0.34 0.0 0 0 221.58 415.06
  L 224.78 415.13
  A 0.34 0.34 0.0 0 0 225.13 414.80
  L 225.26 408.33
  Z
  M 240.52 408.25
  A 0.62 0.62 0.0 0 1 241.14 408.89
  Q 240.75 419.35 241.29 427.83
  C 241.65 433.58 247.95 433.45 252.24 432.85
  Q 252.75 432.78 252.75 432.26
  L 252.75 404.87
  Q 252.75 404.25 252.12 404.25
  L 249.23 404.25
  Q 248.72 404.25 248.72 404.76
  L 248.76 428.43
  Q 248.77 429.15 248.06 429.05
  L 245.92 428.78
  Q 245.12 428.67 245.11 427.86
  L 244.97 404.86
  Q 244.96 404.25 244.36 404.25
  L 240.04 404.25
  Q 239.58 404.25 239.55 404.71
  L 239.38 407.67
  A 0.54 0.54 0.0 0 0 239.92 408.25
  L 240.52 408.25
  Z
  M 256.64 428.57
  Q 254.42 429.76 255.37 432.53
  Q 255.54 433.00 256.04 433.00
  L 268.49 433.00
  Q 269.11 433.00 269.07 432.38
  Q 268.38 421.30 267.27 410.27
  C 266.55 403.18 260.95 404.19 255.79 404.26
  Q 255.34 404.27 255.31 404.72
  L 255.11 407.63
  A 0.58 0.58 0.0 0 0 255.69 408.25
  L 256.38 408.25
  Q 257.00 408.25 257.00 408.87
  L 257.00 427.96
  A 0.70 0.70 0.0 0 1 256.64 428.57
  Z
  M 273.00 409.00
  L 273.00 427.78
  Q 273.00 428.38 272.52 428.73
  Q 270.77 430.04 271.62 432.54
  Q 271.78 433.00 272.27 433.00
  L 277.85 433.00
  Q 278.51 433.00 278.51 432.34
  L 278.51 429.70
  Q 278.51 429.29 278.13 429.11
  L 277.54 428.83
  Q 277.00 428.58 277.00 427.99
  L 277.00 409.00
  Q 277.00 408.25 277.75 408.25
  L 278.11 408.25
  A 0.57 0.57 0.0 0 0 278.68 407.63
  L 278.43 404.70
  A 0.49 0.48 -1.9 0 0 277.94 404.25
  L 272.04 404.25
  Q 271.58 404.25 271.55 404.71
  L 271.38 407.67
  A 0.54 0.54 0.0 0 0 271.92 408.25
  L 272.25 408.25
  Q 273.00 408.25 273.00 409.00
  Z
  M 292.72 409.80
  A 5.50 5.50 0.0 0 0 287.22 404.30
  L 286.76 404.30
  A 5.50 5.50 0.0 0 0 281.26 409.80
  L 281.26 427.46
  A 5.50 5.50 0.0 0 0 286.76 432.96
  L 287.22 432.96
  A 5.50 5.50 0.0 0 0 292.72 427.46
  L 292.72 409.80
  Z"
/>
<path fill="#9195d7" d="
  M 192.36 74.78
  L 206.55 84.27
  L 195.63 91.74
  L 181.13 80.06
  L 192.36 74.78
  Z"
/>
<path fill="#8475c6" d="
  M 181.13 80.06
  L 195.63 91.74
  L 189.27 97.26
  L 171.20 86.11
  L 181.13 80.06
  Z"
/>
<path fill="#000000" d="
  M 350.10 323.79
  L 359.14 319.00
  A 0.60 0.60 0.0 0 0 359.41 318.24
  Q 352.81 302.75 343.75 288.96
  C 330.61 264.77 305.75 249.10 277.89 250.12
  Q 277.25 250.14 277.25 249.49
  L 277.25 243.60
  Q 277.25 243.26 276.91 243.32
  L 264.49 245.48
  A 1.64 1.63 85.2 0 0 263.13 247.10
  L 263.10 258.77
  L 263.03 290.32
  L 263.06 309.42
  L 263.03 323.89
  Q 261.11 324.26 259.87 323.73
  L 259.71 269.75
  L 259.82 247.40
  A 1.28 1.28 0.0 0 0 258.48 246.11
  L 253.84 246.31
  Q 253.27 246.34 253.24 246.91
  L 252.92 254.00
  A 2.12 1.25 74.0 0 1 252.68 254.93
  Q 252.48 255.27 252.10 255.26
  Q 251.36 255.24 251.36 255.98
  L 251.29 268.75
  L 251.25 323.76
  Q 250.06 324.24 248.47 323.87
  L 248.28 319.13
  L 248.78 268.29
  L 248.72 256.07
  Q 248.72 255.61 248.30 255.40
  L 247.42 254.97
  Q 247.00 254.76 246.99 254.30
  L 246.84 247.01
  Q 246.82 246.20 246.01 246.17
  L 240.84 246.00
  Q 240.27 245.98 240.27 246.54
  L 240.21 267.25
  L 239.94 322.90
  Q 239.94 323.17 240.07 323.41
  L 240.25 323.71
  Q 238.77 324.23 237.25 323.91
  L 237.27 311.02
  L 237.39 290.75
  L 237.48 258.02
  L 237.89 247.61
  A 1.93 1.92 -84.2 0 0 236.29 245.64
  L 223.62 243.45
  Q 223.10 243.36 223.09 243.88
  L 222.96 249.77
  Q 222.95 250.19 222.53 250.16
  C 190.68 248.29 165.13 269.42 152.04 296.75
  Q 145.55 306.94 140.94 318.12
  Q 140.74 318.61 141.21 318.84
  L 148.95 322.67
  L 149.90 323.33
  A 0.37 0.37 0.0 0 1 149.69 324.00
  L 126.28 324.00
  Q 125.81 324.00 125.98 323.56
  Q 134.76 300.95 147.73 280.62
  C 159.74 261.79 174.64 248.69 196.32 241.78
  Q 197.00 241.56 196.49 241.06
  L 191.34 235.99
  A 1.14 1.12 -68.3 0 1 191.00 235.18
  L 191.00 228.50
  A 1.08 1.06 21.5 0 0 190.65 227.71
  C 172.50 211.06 167.67 186.78 168.67 162.99
  Q 170.03 130.68 191.20 107.46
  C 219.59 76.32 266.63 72.38 299.53 98.62
  C 323.39 117.63 333.62 146.19 331.37 176.31
  C 329.86 196.60 324.66 213.43 309.63 227.87
  Q 309.25 228.23 309.25 228.76
  L 309.25 235.20
  A 1.11 1.08 68.6 0 1 308.92 235.99
  L 303.63 241.17
  A 0.39 0.39 0.0 0 0 303.79 241.82
  Q 332.63 251.01 348.43 274.32
  Q 363.40 296.41 373.92 322.60
  Q 374.42 323.85 373.08 323.85
  L 350.10 323.79
  Z
  M 242.57 94.90
  C 206.40 98.87 181.51 131.40 181.73 166.97
  C 181.83 184.49 184.27 202.11 196.86 215.39
  C 203.33 222.21 217.10 224.11 225.98 225.10
  Q 257.19 228.57 288.01 222.85
  C 313.94 218.04 319.02 186.82 318.63 165.50
  C 317.88 124.67 285.03 90.23 242.57 94.90
  Z
  M 242.52 238.07
  L 257.25 238.01
  C 270.99 238.11 285.96 234.00 297.27 226.23
  A 1.11 1.08 -17.7 0 0 297.75 225.33
  L 297.75 223.97
  Q 297.75 223.09 296.99 223.53
  Q 278.82 234.08 257.11 234.68
  Q 249.93 235.50 242.57 234.66
  Q 221.14 234.02 203.15 223.40
  Q 202.75 223.16 202.61 223.61
  Q 201.96 225.72 203.54 226.73
  Q 220.90 237.79 242.52 238.07
  Z
  M 242.56 232.77
  L 257.50 232.71
  Q 272.45 232.36 286.14 226.90
  Q 290.28 225.25 285.89 226.04
  Q 272.91 228.37 257.70 229.14
  L 242.96 229.15
  Q 227.70 228.43 212.74 225.82
  A 0.25 0.25 0.0 0 0 212.60 226.29
  Q 226.81 232.28 242.56 232.77
  Z
  M 242.76 243.44
  L 257.24 243.44
  C 270.97 242.87 285.76 239.47 296.76 231.53
  C 297.64 230.89 297.98 230.04 297.72 229.02
  Q 297.59 228.51 297.13 228.78
  Q 278.67 239.53 256.94 240.13
  Q 249.98 240.99 242.74 240.21
  C 228.60 239.22 215.28 236.23 203.09 228.69
  Q 202.62 228.40 202.42 228.91
  Q 201.98 230.06 203.05 231.00
  C 212.56 239.39 230.50 242.94 242.76 243.44
  Z"
/>
<path fill="#c0c2de" d="
  M 171.20 86.11
  L 189.27 97.26
  C 180.65 106.58 175.53 113.18 169.70 124.36
  L 143.88 109.67
  Q 156.14 95.78 171.20 86.11
  Z"
/>
<path fill="#d7fdff" d="
  M 242.57 94.90
  C 285.03 90.23 317.88 124.67 318.63 165.50
  C 319.02 186.82 313.94 218.04 288.01 222.85
  Q 257.19 228.57 225.98 225.10
  C 217.10 224.11 203.33 222.21 196.86 215.39
  C 184.27 202.11 181.83 184.49 181.73 166.97
  C 181.51 131.40 206.40 98.87 242.57 94.90
  Z
  M 256.94 102.96
  C 242.69 102.65 226.72 105.37 216.96 116.54
  Q 214.62 119.21 217.87 117.79
  Q 236.59 109.63 256.98 112.03
  A 1.11 1.10 -88.0 0 0 258.21 110.88
  L 257.92 103.92
  A 1.00 1.00 0.0 0 0 256.94 102.96
  Z
  M 274.39 107.57
  L 272.29 113.31
  A 0.79 0.79 0.0 0 0 272.81 114.35
  L 286.36 118.35
  A 0.45 0.44 -9.3 0 0 286.85 117.67
  Q 282.22 110.98 274.96 107.34
  A 0.41 0.41 0.0 0 0 274.39 107.57
  Z
  M 303.98 134.16
  C 274.19 111.38 225.92 112.30 196.33 134.10
  Q 194.55 135.41 193.69 137.38
  Q 181.27 165.58 193.40 194.01
  Q 194.33 196.17 196.18 197.59
  C 225.72 220.33 274.19 219.78 303.90 197.84
  Q 305.76 196.46 306.68 194.35
  Q 319.07 165.97 306.69 137.60
  Q 305.79 135.54 303.98 134.16
  Z"
/>
<path fill="#ffffff" d="
  M 256.94 102.96
  A 1.00 1.00 0.0 0 1 257.92 103.92
  L 258.21 110.88
  A 1.11 1.10 -88.0 0 1 256.98 112.03
  Q 236.59 109.63 217.87 117.79
  Q 214.62 119.21 216.96 116.54
  C 226.72 105.37 242.69 102.65 256.94 102.96
  Z"
/>
<path fill="#ffffff" d="
  M 274.39 107.57
  A 0.41 0.41 0.0 0 1 274.96 107.34
  Q 282.22 110.98 286.85 117.67
  A 0.45 0.44 -9.3 0 1 286.36 118.35
  L 272.81 114.35
  A 0.79 0.79 0.0 0 1 272.29 113.31
  L 274.39 107.57
  Z"
/>
<path fill="#a988bf" d="
  M 143.88 109.67
  L 169.70 124.36
  Q 162.30 140.25 160.46 157.50
  L 123.16 140.43
  Q 131.31 123.92 143.88 109.67
  Z"
/>
<path fill="#000000" d="
  M 386.00 183.96
  Q 385.96 183.71 385.93 183.46
  Q 385.08 176.01 382.71 168.25
  Q 380.89 159.13 377.18 150.49
  L 375.39 146.64
  L 369.88 135.61
  L 363.17 124.77
  L 362.00 121.79
  Q 385.33 116.66 409.20 115.35
  C 422.37 114.63 457.96 115.23 440.91 139.92
  C 437.91 144.25 433.14 149.52 428.68 153.38
  Q 408.76 170.59 386.00 183.96
  Z"
/>
<path fill="#000000" d="
  M 196.33 134.10
  C 225.92 112.30 274.19 111.38 303.98 134.16
  Q 305.79 135.54 306.69 137.60
  Q 319.07 165.97 306.68 194.35
  Q 305.76 196.46 303.90 197.84
  C 274.19 219.78 225.72 220.33 196.18 197.59
  Q 194.33 196.17 193.40 194.01
  Q 181.27 165.58 193.69 137.38
  Q 194.55 135.41 196.33 134.10
  Z
  M 203.18 198.82
  C 228.91 216.26 271.27 215.28 297.25 198.71
  Q 302.68 196.60 304.69 192.20
  C 311.99 176.18 311.72 155.33 304.36 139.26
  Q 303.39 137.15 301.47 135.77
  C 275.42 117.06 239.50 116.25 210.81 128.54
  C 206.45 130.41 197.46 135.17 195.45 140.10
  Q 185.08 165.61 195.13 191.11
  C 196.74 195.18 199.39 197.13 203.18 198.82
  Z"
/>
<path fill="#a988bf" d="
  M 328.21 119.91
  L 363.17 124.77
  L 369.88 135.61
  Q 351.66 134.25 333.59 131.28
  L 328.21 119.91
  Z"
/>
<path fill="#42295e" d="
  M 297.25 198.71
  Q 300.29 183.53 298.16 168.24
  Q 298.08 167.71 297.63 167.42
  Q 287.05 160.66 275.23 157.84
  L 271.78 157.17
  Q 264.40 154.73 256.75 155.51
  L 250.23 139.74
  A 0.31 0.31 0.0 0 0 249.65 139.74
  L 243.07 155.65
  Q 235.70 154.53 228.96 157.19
  L 224.74 157.82
  L 211.71 162.54
  Q 212.18 151.24 214.64 140.64
  A 0.36 0.35 -21.2 0 0 214.00 140.36
  Q 205.92 151.87 205.96 165.75
  Q 204.00 166.23 202.57 167.55
  A 1.51 1.47 73.7 0 0 202.11 168.42
  Q 199.84 183.52 203.18 198.82
  C 199.39 197.13 196.74 195.18 195.13 191.11
  Q 185.08 165.61 195.45 140.10
  C 197.46 135.17 206.45 130.41 210.81 128.54
  C 239.50 116.25 275.42 117.06 301.47 135.77
  Q 303.39 137.15 304.36 139.26
  C 311.72 155.33 311.99 176.18 304.69 192.20
  Q 302.68 196.60 297.25 198.71
  Z"
/>
<path fill="#8475c6" d="
  M 333.59 131.28
  Q 351.66 134.25 369.88 135.61
  L 375.39 146.64
  Q 356.45 146.37 337.59 144.48
  L 333.59 131.28
  Z"
/>
<path fill="#d7fdff" d="
  M 256.75 155.51
  Q 263.91 157.37 271.78 157.17
  L 275.23 157.84
  L 261.88 169.65
  Q 261.54 169.96 261.64 170.40
  L 265.54 187.40
  A 0.28 0.28 0.0 0 1 265.12 187.70
  L 250.40 178.71
  Q 250.00 178.47 249.60 178.71
  L 234.93 187.58
  Q 234.26 187.98 234.44 187.23
  L 238.29 170.52
  Q 238.42 169.98 238.01 169.62
  L 224.74 157.82
  L 228.96 157.19
  Q 236.31 157.35 243.07 155.65
  L 249.65 139.74
  A 0.31 0.31 0.0 0 1 250.23 139.74
  L 256.75 155.51
  Z"
/>
<path fill="#ffffff" d="
  M 211.71 162.54
  Q 211.57 176.23 214.85 189.46
  A 0.28 0.28 0.0 0 1 214.36 189.70
  Q 206.15 179.16 205.96 165.75
  Q 205.92 151.87 214.00 140.36
  A 0.36 0.35 -21.2 0 1 214.64 140.64
  Q 212.18 151.24 211.71 162.54
  Z"
/>
<path fill="#c5d0e6" d="
  M 123.16 140.43
  L 160.46 157.50
  Q 160.73 159.23 160.18 161.08
  Q 140.95 152.57 122.27 142.49
  L 123.16 140.43
  Z"
/>
<path fill="#9195d7" d="
  M 122.27 142.49
  Q 140.95 152.57 160.18 161.08
  L 160.06 165.71
  Q 139.86 156.73 120.41 146.54
  L 122.27 142.49
  Z"
/>
<path fill="#765ab5" d="
  M 375.39 146.64
  L 377.18 150.49
  L 375.75 150.54
  Q 375.43 150.23 375.00 150.23
  Q 356.74 150.22 338.40 148.18
  L 337.59 144.48
  Q 356.45 146.37 375.39 146.64
  Z"
/>
<path fill="#c5d0e6" d="
  M 120.41 146.54
  Q 139.86 156.73 160.06 165.71
  L 160.48 178.96
  Q 138.02 168.38 116.84 155.61
  L 120.41 146.54
  Z"
/>
<path fill="#c0c2de" d="
  M 338.40 148.18
  Q 356.74 150.22 375.00 150.23
  Q 375.43 150.23 375.75 150.54
  Q 376.20 150.77 376.27 151.19
  Q 377.61 159.40 377.28 168.08
  L 340.03 166.31
  L 338.40 148.18
  Z"
/>
<path fill="#a988bf" d="
  M 375.75 150.54
  L 377.18 150.49
  Q 380.89 159.13 382.71 168.25
  L 378.26 168.22
  Q 378.02 167.80 377.28 168.08
  Q 377.61 159.40 376.27 151.19
  Q 376.20 150.77 375.75 150.54
  Z"
/>
<path fill="#914b9d" d="
  M 271.78 157.17
  Q 263.91 157.37 256.75 155.51
  Q 264.40 154.73 271.78 157.17
  Z"
/>
<path fill="#914b9d" d="
  M 243.07 155.65
  Q 236.31 157.35 228.96 157.19
  Q 235.70 154.53 243.07 155.65
  Z"
/>
<path fill="#a988bf" d="
  M 160.48 178.96
  L 162.27 192.89
  Q 137.51 179.87 113.85 164.70
  L 116.84 155.61
  Q 138.02 168.38 160.48 178.96
  Z"
/>
<path fill="#914b9d" d="
  M 224.74 157.82
  L 238.01 169.62
  Q 238.42 169.98 238.29 170.52
  L 234.44 187.23
  Q 234.26 187.98 234.93 187.58
  L 249.60 178.71
  Q 250.00 178.47 250.40 178.71
  L 265.12 187.70
  A 0.28 0.28 0.0 0 0 265.54 187.40
  L 261.64 170.40
  Q 261.54 169.96 261.88 169.65
  L 275.23 157.84
  Q 287.05 160.66 297.63 167.42
  Q 298.08 167.71 298.16 168.24
  Q 300.29 183.53 297.25 198.71
  C 271.27 215.28 228.91 216.26 203.18 198.82
  Q 199.84 183.52 202.11 168.42
  A 1.51 1.47 73.7 0 1 202.57 167.55
  Q 204.00 166.23 205.96 165.75
  Q 206.15 179.16 214.36 189.70
  A 0.28 0.28 0.0 0 0 214.85 189.46
  Q 211.57 176.23 211.71 162.54
  L 224.74 157.82
  Z"
/>
<path fill="#8475c6" d="
  M 113.85 164.70
  Q 137.51 179.87 162.27 192.89
  L 165.24 203.98
  Q 137.97 188.12 112.62 169.44
  L 113.85 164.70
  Z"
/>
<path fill="#9b64ab" d="
  M 377.28 168.08
  Q 378.02 167.80 378.26 168.22
  Q 378.11 168.22 377.96 168.24
  Q 377.65 168.27 377.64 168.58
  L 376.91 184.02
  A 0.60 0.59 87.2 0 0 377.58 184.64
  L 385.93 183.46
  Q 385.96 183.71 386.00 183.96
  L 376.84 189.35
  Q 376.15 187.82 376.65 186.47
  Q 377.39 184.45 375.27 184.84
  Q 356.63 188.28 338.50 188.96
  Q 339.99 177.91 340.03 166.31
  L 377.28 168.08
  Z"
/>
<path fill="#914b9d" d="
  M 378.26 168.22
  L 382.71 168.25
  Q 385.08 176.01 385.93 183.46
  L 377.58 184.64
  A 0.60 0.59 87.2 0 1 376.91 184.02
  L 377.64 168.58
  Q 377.65 168.27 377.96 168.24
  Q 378.11 168.22 378.26 168.22
  Z"
/>
<path fill="#9195d7" d="
  M 112.62 169.44
  Q 137.97 188.12 165.24 203.98
  L 172.09 218.73
  L 149.86 206.75
  Q 130.71 195.73 110.29 181.78
  L 112.62 169.44
  Z"
/>
<path fill="#c5d0e6" d="
  M 110.29 181.78
  Q 130.71 195.73 149.86 206.75
  L 142.60 225.65
  Q 142.41 226.16 141.87 226.25
  L 141.20 226.37
  Q 124.78 215.95 108.85 203.80
  Q 108.51 193.87 110.29 181.78
  Z"
/>
<path fill="#a988bf" d="
  M 376.84 189.35
  L 366.00 195.38
  L 336.92 196.64
  L 338.50 188.96
  Q 356.63 188.28 375.27 184.84
  Q 377.39 184.45 376.65 186.47
  Q 376.15 187.82 376.84 189.35
  Z"
/>
<path fill="#765ab5" d="
  M 386.41 190.96
  Q 387.96 201.77 386.71 211.98
  L 371.30 213.32
  Q 373.86 205.39 374.78 197.43
  L 386.41 190.96
  Z"
/>
<path fill="#8475c6" d="
  M 366.00 195.38
  L 331.28 213.25
  Q 330.80 213.49 331.03 213.00
  Q 334.80 204.92 336.92 196.64
  L 366.00 195.38
  Z"
/>
<path fill="#8475c6" d="
  M 374.78 197.43
  Q 373.86 205.39 371.30 213.32
  Q 371.31 213.47 371.05 213.43
  L 343.43 213.51
  L 374.78 197.43
  Z"
/>
<path fill="#a988bf" d="
  M 108.85 203.80
  Q 124.78 215.95 141.20 226.37
  Q 156.10 235.59 171.87 243.65
  Q 161.55 250.53 153.99 258.42
  Q 133.06 247.07 112.47 234.14
  L 109.72 220.99
  L 109.04 214.00
  L 108.85 203.80
  Z"
/>
<path fill="#c0c2de" d="
  M 149.86 206.75
  L 172.09 218.73
  Q 176.36 225.51 182.12 231.31
  A 1.30 1.30 0.0 0 1 182.50 232.23
  L 182.50 237.46
  Q 182.50 237.85 182.16 238.04
  L 171.87 243.65
  Q 156.10 235.59 141.20 226.37
  L 141.87 226.25
  Q 142.41 226.16 142.60 225.65
  L 149.86 206.75
  Z"
/>
<path fill="#9b64ab" d="
  M 386.71 211.98
  L 386.14 218.87
  L 370.22 219.60
  A 1.33 1.33 0.0 0 0 369.03 220.48
  Q 364.35 233.68 357.50 245.71
  L 328.82 243.74
  L 318.25 238.12
  Q 317.75 237.85 317.75 237.28
  L 317.75 232.23
  A 1.33 1.30 -24.1 0 1 318.10 231.34
  C 322.47 226.56 324.88 221.54 331.32 219.37
  L 368.27 219.44
  A 1.37 1.37 0.0 0 0 369.58 218.46
  L 371.05 213.43
  Q 371.31 213.47 371.30 213.32
  L 386.71 211.98
  Z"
/>
<path fill="#a988bf" d="
  M 343.43 213.51
  L 371.05 213.43
  L 369.58 218.46
  A 1.37 1.37 0.0 0 1 368.27 219.44
  L 331.32 219.37
  L 343.43 213.51
  Z"
/>
<path fill="#914b9d" d="
  M 386.14 218.87
  Q 384.53 233.25 379.98 246.41
  L 357.50 245.71
  Q 364.35 233.68 369.03 220.48
  A 1.33 1.33 0.0 0 1 370.22 219.60
  L 386.14 218.87
  Z"
/>
<path fill="#000000" d="
  M 109.72 220.99
  L 112.47 234.14
  Q 114.15 242.33 116.94 249.25
  Q 120.24 258.62 124.49 266.27
  L 130.89 277.63
  Q 132.76 280.04 132.86 281.42
  Q 104.44 287.13 75.75 287.29
  C 64.00 287.36 45.92 285.73 51.25 269.01
  Q 53.31 262.55 58.35 257.57
  C 72.96 243.14 93.34 230.62 109.72 220.99
  Z"
/>
<path fill="#566566" d="
  M 242.57 234.66
  L 242.52 238.07
  Q 220.90 237.79 203.54 226.73
  Q 201.96 225.72 202.61 223.61
  Q 202.75 223.16 203.15 223.40
  Q 221.14 234.02 242.57 234.66
  Z"
/>
<path fill="#566566" d="
  M 257.25 238.01
  Q 257.94 236.70 257.11 234.68
  Q 278.82 234.08 296.99 223.53
  Q 297.75 223.09 297.75 223.97
  L 297.75 225.33
  A 1.11 1.08 -17.7 0 1 297.27 226.23
  C 285.96 234.00 270.99 238.11 257.25 238.01
  Z"
/>
<path fill="#566566" d="
  M 242.96 229.15
  L 242.56 232.77
  Q 226.81 232.28 212.60 226.29
  A 0.25 0.25 0.0 0 1 212.74 225.82
  Q 227.70 228.43 242.96 229.15
  Z"
/>
<path fill="#566566" d="
  M 257.50 232.71
  L 257.70 229.14
  Q 272.91 228.37 285.89 226.04
  Q 290.28 225.25 286.14 226.90
  Q 272.45 232.36 257.50 232.71
  Z"
/>
<path fill="#566566" d="
  M 242.74 240.21
  L 242.76 243.44
  C 230.50 242.94 212.56 239.39 203.05 231.00
  Q 201.98 230.06 202.42 228.91
  Q 202.62 228.40 203.09 228.69
  C 215.28 236.23 228.60 239.22 242.74 240.21
  Z"
/>
<path fill="#566566" d="
  M 257.24 243.44
  Q 258.09 241.82 256.94 240.13
  Q 278.67 239.53 297.13 228.78
  Q 297.59 228.51 297.72 229.02
  C 297.98 230.04 297.64 230.89 296.76 231.53
  C 285.76 239.47 270.97 242.87 257.24 243.44
  Z"
/>
<path fill="#d7fdff" d="
  M 242.96 229.15
  L 257.70 229.14
  L 257.50 232.71
  L 242.56 232.77
  L 242.96 229.15
  Z"
/>
<path fill="#8475c6" d="
  M 112.47 234.14
  Q 133.06 247.07 153.99 258.42
  L 146.36 267.57
  Q 135.62 260.94 118.31 248.69
  Q 117.42 248.06 116.94 249.25
  Q 114.15 242.33 112.47 234.14
  Z"
/>
<path fill="#d7fdff" d="
  M 242.57 234.66
  Q 249.93 235.50 257.11 234.68
  Q 257.94 236.70 257.25 238.01
  L 242.52 238.07
  L 242.57 234.66
  Z"
/>
<path fill="#d7fdff" d="
  M 242.74 240.21
  Q 249.98 240.99 256.94 240.13
  Q 258.09 241.82 257.24 243.44
  L 242.76 243.44
  L 242.74 240.21
  Z"
/>
<path fill="#222829" d="
  M 237.48 258.02
  C 204.34 256.92 174.51 273.17 152.04 296.75
  C 165.13 269.42 190.68 248.29 222.53 250.16
  Q 222.95 250.19 222.96 249.77
  L 223.09 243.88
  Q 223.10 243.36 223.62 243.45
  L 236.29 245.64
  A 1.93 1.92 -84.2 0 1 237.89 247.61
  L 237.48 258.02
  Z"
/>
<path fill="#222829" d="
  M 343.75 288.96
  C 320.94 270.24 292.87 260.45 263.10 258.77
  L 263.13 247.10
  A 1.64 1.63 85.2 0 1 264.49 245.48
  L 276.91 243.32
  Q 277.25 243.26 277.25 243.60
  L 277.25 249.49
  Q 277.25 250.14 277.89 250.12
  C 305.75 249.10 330.61 264.77 343.75 288.96
  Z"
/>
<path fill="#765ab5" d="
  M 357.50 245.71
  L 379.98 246.41
  L 374.63 259.39
  L 350.23 260.24
  Q 349.73 260.26 349.32 259.96
  L 348.83 259.60
  L 352.72 253.81
  A 0.53 0.53 0.0 0 0 352.26 252.98
  L 341.00 253.31
  L 328.82 243.74
  L 357.50 245.71
  Z"
/>
<path fill="#222829" d="
  M 248.78 268.29
  Q 244.42 268.58 240.21 267.25
  L 240.27 246.54
  Q 240.27 245.98 240.84 246.00
  L 246.01 246.17
  Q 246.82 246.20 246.84 247.01
  L 246.99 254.30
  Q 247.00 254.76 247.42 254.97
  L 248.30 255.40
  Q 248.72 255.61 248.72 256.07
  L 248.78 268.29
  Z"
/>
<path fill="#222829" d="
  M 259.71 269.75
  L 251.29 268.75
  L 251.36 255.98
  Q 251.36 255.24 252.10 255.26
  Q 252.48 255.27 252.68 254.93
  A 2.12 1.25 74.0 0 0 252.92 254.00
  L 253.24 246.91
  Q 253.27 246.34 253.84 246.31
  L 258.48 246.11
  A 1.28 1.28 0.0 0 1 259.82 247.40
  L 259.71 269.75
  Z"
/>
<path fill="#9195d7" d="
  M 146.36 267.57
  L 140.39 276.13
  L 124.49 266.27
  Q 120.24 258.62 116.94 249.25
  Q 117.42 248.06 118.31 248.69
  Q 135.62 260.94 146.36 267.57
  Z"
/>
<path fill="#8475c6" d="
  M 348.83 259.60
  Q 348.65 260.07 348.22 260.48
  L 341.00 253.31
  L 352.26 252.98
  A 0.53 0.53 0.0 0 1 352.72 253.81
  L 348.83 259.60
  Z"
/>
<path fill="#566566" d="
  M 237.48 258.02
  L 237.39 290.75
  Q 234.85 290.75 232.77 290.95
  Q 204.15 293.72 177.06 304.17
  Q 175.89 303.45 175.97 302.02
  Q 176.01 301.38 175.60 301.17
  Q 175.14 300.93 175.21 301.44
  L 178.34 323.75
  L 167.02 323.91
  A 0.98 0.96 -12.4 0 1 166.12 323.35
  L 161.32 313.16
  Q 161.08 312.64 160.60 312.96
  Q 154.22 317.26 148.95 322.67
  L 141.21 318.84
  Q 140.74 318.61 140.94 318.12
  Q 145.55 306.94 152.04 296.75
  C 174.51 273.17 204.34 256.92 237.48 258.02
  Z
  M 216.54 267.91
  C 196.17 266.10 176.58 277.75 166.71 295.30
  A 0.34 0.34 0.0 0 0 167.23 295.72
  Q 188.93 276.73 216.61 268.66
  Q 218.55 268.09 216.54 267.91
  Z"
/>
<path fill="#566566" d="
  M 263.10 258.77
  C 292.87 260.45 320.94 270.24 343.75 288.96
  Q 352.81 302.75 359.41 318.24
  A 0.60 0.60 0.0 0 1 359.14 319.00
  L 350.10 323.79
  L 340.17 323.97
  A 1.35 1.31 -25.8 0 1 339.32 323.69
  L 333.81 319.43
  A 0.70 0.70 0.0 0 0 332.72 319.75
  L 331.39 323.35
  Q 331.18 323.93 330.56 323.92
  L 321.91 323.84
  Q 323.22 314.26 324.95 305.16
  Q 324.98 304.97 324.93 304.83
  Q 324.87 304.69 324.78 304.62
  Q 324.43 304.35 324.25 304.74
  L 321.34 311.18
  C 302.79 299.92 284.88 292.24 263.03 290.32
  L 263.10 258.77
  Z"
/>
<path fill="#9b64ab" d="
  M 374.63 259.39
  Q 369.50 270.45 362.60 280.78
  Q 356.06 269.89 348.22 260.48
  Q 348.65 260.07 348.83 259.60
  L 349.32 259.96
  Q 349.73 260.26 350.23 260.24
  L 374.63 259.39
  Z"
/>
<path fill="#8475c6" d="
  M 140.39 276.13
  L 137.36 280.35
  Q 134.08 277.03 130.89 277.63
  L 124.49 266.27
  L 140.39 276.13
  Z"
/>
<path fill="#566566" d="
  M 240.21 267.25
  Q 244.42 268.58 248.78 268.29
  L 248.28 319.13
  Q 247.44 305.77 247.35 292.49
  Q 247.28 282.03 247.22 271.52
  Q 247.21 271.00 246.70 271.00
  L 242.28 271.00
  Q 241.70 271.00 241.70 271.58
  L 242.12 323.51
  Q 241.45 323.94 240.25 323.71
  L 240.07 323.41
  Q 239.94 323.17 239.94 322.90
  L 240.21 267.25
  Z"
/>
<path fill="#ffffff" d="
  M 216.54 267.91
  Q 218.55 268.09 216.61 268.66
  Q 188.93 276.73 167.23 295.72
  A 0.34 0.34 0.0 0 1 166.71 295.30
  C 176.58 277.75 196.17 266.10 216.54 267.91
  Z"
/>
<path fill="#566566" d="
  M 251.29 268.75
  L 259.71 269.75
  L 259.87 323.73
  L 251.25 323.76
  L 251.29 268.75
  Z"
/>
<path fill="#ffffff" d="
  M 248.28 319.13
  L 248.47 323.87
  L 244.53 323.97
  Q 244.12 323.98 243.73 324.09
  Q 242.74 324.37 242.12 323.51
  L 241.70 271.58
  Q 241.70 271.00 242.28 271.00
  L 246.70 271.00
  Q 247.21 271.00 247.22 271.52
  Q 247.28 282.03 247.35 292.49
  Q 247.44 305.77 248.28 319.13
  Z"
/>
<path fill="#a988bf" d="
  M 137.36 280.35
  L 132.86 281.42
  Q 132.76 280.04 130.89 277.63
  Q 134.08 277.03 137.36 280.35
  Z"
/>
<path fill="#000000" d="
  M 177.06 304.17
  L 185.54 323.24
  Q 185.78 323.80 185.17 323.79
  L 178.34 323.75
  L 175.21 301.44
  Q 175.14 300.93 175.60 301.17
  Q 176.01 301.38 175.97 302.02
  Q 175.89 303.45 177.06 304.17
  Z"
/>
<path fill="#000000" d="
  M 321.91 323.84
  L 316.25 323.90
  Q 315.57 323.91 315.86 323.29
  L 321.34 311.18
  L 324.25 304.74
  Q 324.43 304.35 324.78 304.62
  Q 324.87 304.69 324.93 304.83
  Q 324.98 304.97 324.95 305.16
  Q 323.22 314.26 321.91 323.84
  Z"
/>
<path fill="#914b9d" d="
  M 263.06 309.42
  C 279.29 311.48 296.44 314.34 308.11 323.47
  Q 308.67 323.90 307.96 323.90
  L 263.03 323.89
  L 263.06 309.42
  Z"
/>
<path fill="#914b9d" d="
  M 237.27 311.02
  L 237.25 323.91
  L 193.29 323.71
  Q 192.24 323.71 193.20 323.27
  Q 214.15 313.74 237.27 311.02
  Z"
/>
<path fill="#000000" d="
  M 210.20 342.50
  C 210.19 329.54 223.73 330.97 232.17 331.34
  Q 232.68 331.36 232.69 331.88
  Q 232.92 353.57 232.62 375.20
  C 232.44 388.94 220.56 387.09 210.79 386.99
  Q 210.27 386.98 210.27 386.47
  Q 210.22 364.47 210.20 342.50
  Z
  M 224.40 339.45
  C 220.36 338.07 218.41 339.33 218.29 343.50
  Q 217.82 361.04 218.05 378.61
  Q 218.05 379.13 218.57 379.20
  Q 221.36 379.60 223.91 378.55
  A 0.98 0.97 -7.0 0 0 224.51 377.79
  Q 225.14 373.79 225.09 372.50
  Q 224.54 356.26 224.81 340.03
  Q 224.81 339.59 224.40 339.45
  Z"
/>
<path fill="#000000" d="
  M 258.67 339.09
  A 0.66 0.65 -89.2 0 0 258.00 339.75
  L 258.00 386.50
  Q 258.00 387.00 257.50 387.00
  L 250.75 387.00
  Q 250.25 387.00 250.25 386.50
  L 250.25 339.62
  Q 250.25 339.00 249.62 339.00
  L 245.50 339.00
  Q 244.75 339.00 244.75 339.75
  L 244.75 386.50
  Q 244.75 387.00 244.25 387.00
  L 237.50 387.00
  Q 237.00 387.00 237.00 386.50
  L 237.00 331.76
  Q 237.00 331.26 237.50 331.26
  Q 247.92 331.25 258.25 331.21
  Q 269.34 331.17 270.30 342.76
  Q 272.10 364.62 273.89 386.51
  Q 273.93 387.00 273.44 387.00
  L 266.54 387.00
  Q 266.09 387.00 266.06 386.56
  Q 264.35 364.75 262.41 342.96
  C 262.18 340.37 261.33 339.14 258.67 339.09
  Z"
/>
<path fill="#000000" d="
  M 284.03 339.49
  Q 283.93 358.22 284.04 376.94
  C 284.05 379.55 288.09 379.36 290.31 379.19
  Q 290.75 379.16 290.75 378.73
  L 290.75 363.63
  Q 290.75 363.00 290.12 363.00
  L 288.00 363.00
  Q 287.50 363.00 287.50 362.50
  L 287.50 355.75
  Q 287.50 355.25 288.00 355.25
  L 298.00 355.25
  Q 298.50 355.25 298.50 355.75
  L 298.50 386.49
  Q 298.50 386.99 298.00 387.00
  C 286.15 387.02 276.30 388.84 276.26 373.36
  Q 276.22 352.56 276.26 331.75
  Q 276.26 331.25 276.76 331.25
  L 298.00 331.25
  Q 298.50 331.25 298.50 331.75
  L 298.50 344.25
  Q 298.50 344.75 298.00 344.75
  L 291.35 344.75
  Q 290.70 344.75 290.72 344.10
  L 290.84 339.55
  Q 290.85 339.00 290.31 339.00
  L 284.52 339.00
  Q 284.03 339.00 284.03 339.49
  Z"
/>
<path fill="#914b9d" d="
  M 151.00 350.81
  L 168.48 352.30
  A 0.31 0.31 0.0 0 1 168.66 352.85
  L 155.39 364.33
  A 0.31 0.31 0.0 0 0 155.29 364.64
  L 159.27 381.73
  A 0.31 0.31 0.0 0 1 158.81 382.06
  L 143.79 373.00
  A 0.31 0.31 0.0 0 0 143.47 373.00
  L 128.45 382.06
  A 0.31 0.31 0.0 0 1 127.99 381.73
  L 131.97 364.64
  A 0.31 0.31 0.0 0 0 131.87 364.33
  L 118.60 352.85
  A 0.31 0.31 0.0 0 1 118.78 352.30
  L 136.26 350.81
  A 0.31 0.31 0.0 0 0 136.52 350.62
  L 143.34 334.46
  A 0.31 0.31 0.0 0 1 143.92 334.46
  L 150.74 350.62
  A 0.31 0.31 0.0 0 0 151.00 350.81
  Z"
/>
<path fill="#914b9d" d="
  M 363.63 353.59
  L 381.19 355.06
  A 0.30 0.30 0.0 0 1 381.36 355.58
  L 368.02 367.09
  A 0.30 0.30 0.0 0 0 367.92 367.39
  L 371.95 384.54
  A 0.30 0.30 0.0 0 1 371.50 384.86
  L 356.44 375.73
  A 0.30 0.30 0.0 0 0 356.12 375.73
  L 341.06 384.86
  A 0.30 0.30 0.0 0 1 340.61 384.54
  L 344.64 367.39
  A 0.30 0.30 0.0 0 0 344.54 367.09
  L 331.20 355.58
  A 0.30 0.30 0.0 0 1 331.37 355.06
  L 348.93 353.59
  A 0.30 0.30 0.0 0 0 349.18 353.40
  L 356.00 337.16
  A 0.30 0.30 0.0 0 1 356.56 337.16
  L 363.38 353.40
  A 0.30 0.30 0.0 0 0 363.63 353.59
  Z"
/>
<path fill="#d7fdff" d="
  M 218.29 343.50
  C 218.41 339.33 220.36 338.07 224.40 339.45
  Q 224.81 339.59 224.81 340.03
  Q 224.54 356.26 225.09 372.50
  Q 225.14 373.79 224.51 377.79
  A 0.98 0.97 -7.0 0 1 223.91 378.55
  Q 221.36 379.60 218.57 379.20
  Q 218.05 379.13 218.05 378.61
  Q 217.82 361.04 218.29 343.50
  Z"
/>
<path fill="#914b9d" d="
  M 211.82 428.84
  Q 214.51 429.73 214.99 427.01
  C 216.36 419.15 208.70 417.46 207.59 411.03
  C 206.32 403.66 213.79 404.23 218.49 404.26
  A 0.51 0.50 0.6 0 1 219.00 404.77
  L 218.99 410.60
  A 0.65 0.65 0.0 0 1 218.34 411.25
  L 215.62 411.25
  A 0.74 0.73 -87.2 0 1 214.89 410.44
  L 215.03 409.06
  Q 215.11 408.25 214.30 408.25
  L 212.97 408.25
  A 1.79 1.79 0.0 0 0 211.57 411.15
  C 216.08 416.83 220.66 421.01 218.60 429.09
  C 217.50 433.41 212.13 433.33 208.05 432.87
  Q 207.49 432.81 207.49 432.24
  L 207.50 422.02
  Q 207.50 421.48 208.05 421.48
  L 210.70 421.51
  Q 211.38 421.52 211.39 422.20
  L 211.47 428.36
  Q 211.48 428.73 211.82 428.84
  Z"
/>
<path fill="#914b9d" d="
  M 225.26 408.33
  L 225.13 414.80
  A 0.34 0.34 0.0 0 1 224.78 415.13
  L 221.58 415.06
  A 0.34 0.34 0.0 0 1 221.25 414.72
  L 221.25 404.59
  A 0.34 0.34 0.0 0 1 221.59 404.25
  L 236.66 404.25
  A 0.34 0.34 0.0 0 1 237.00 404.59
  L 237.00 420.16
  A 0.34 0.34 0.0 0 1 236.66 420.50
  L 233.34 420.50
  A 0.34 0.34 0.0 0 1 233.00 420.16
  L 233.00 408.40
  A 0.34 0.34 0.0 0 0 232.69 408.06
  L 231.64 407.98
  A 0.34 0.34 0.0 0 0 231.28 408.31
  L 231.03 432.66
  A 0.34 0.34 0.0 0 1 230.69 433.00
  L 227.34 433.00
  A 0.34 0.34 0.0 0 1 227.00 432.66
  L 227.00 408.34
  A 0.34 0.34 0.0 0 0 226.66 408.00
  L 225.60 408.00
  A 0.34 0.34 0.0 0 0 225.26 408.33
  Z"
/>
<path fill="#914b9d" d="
  M 240.52 408.25
  L 239.92 408.25
  A 0.54 0.54 0.0 0 1 239.38 407.67
  L 239.55 404.71
  Q 239.58 404.25 240.04 404.25
  L 244.36 404.25
  Q 244.96 404.25 244.97 404.86
  L 245.11 427.86
  Q 245.12 428.67 245.92 428.78
  L 248.06 429.05
  Q 248.77 429.15 248.76 428.43
  L 248.72 404.76
  Q 248.72 404.25 249.23 404.25
  L 252.12 404.25
  Q 252.75 404.25 252.75 404.87
  L 252.75 432.26
  Q 252.75 432.78 252.24 432.85
  C 247.95 433.45 241.65 433.58 241.29 427.83
  Q 240.75 419.35 241.14 408.89
  A 0.62 0.62 0.0 0 0 240.52 408.25
  Z"
/>
<path fill="#914b9d" d="
  M 257.00 427.96
  L 257.00 408.87
  Q 257.00 408.25 256.38 408.25
  L 255.69 408.25
  A 0.58 0.58 0.0 0 1 255.11 407.63
  L 255.31 404.72
  Q 255.34 404.27 255.79 404.26
  C 260.95 404.19 266.55 403.18 267.27 410.27
  Q 268.38 421.30 269.07 432.38
  Q 269.11 433.00 268.49 433.00
  L 256.04 433.00
  Q 255.54 433.00 255.37 432.53
  Q 254.42 429.76 256.64 428.57
  A 0.70 0.70 0.0 0 0 257.00 427.96
  Z
  M 261.40 429.06
  L 264.40 428.92
  A 0.24 0.24 0.0 0 0 264.63 428.67
  L 264.62 428.52
  A 20.31 1.33 87.5 0 0 262.41 408.29
  L 261.59 408.33
  A 20.31 1.33 87.5 0 0 261.15 428.68
  L 261.15 428.83
  A 0.24 0.24 0.0 0 0 261.40 429.06
  Z"
/>
<path fill="#914b9d" d="
  M 272.25 408.25
  L 271.92 408.25
  A 0.54 0.54 0.0 0 1 271.38 407.67
  L 271.55 404.71
  Q 271.58 404.25 272.04 404.25
  L 277.94 404.25
  A 0.49 0.48 -1.9 0 1 278.43 404.70
  L 278.68 407.63
  A 0.57 0.57 0.0 0 1 278.11 408.25
  L 277.75 408.25
  Q 277.00 408.25 277.00 409.00
  L 277.00 427.99
  Q 277.00 428.58 277.54 428.83
  L 278.13 429.11
  Q 278.51 429.29 278.51 429.70
  L 278.51 432.34
  Q 278.51 433.00 277.85 433.00
  L 272.27 433.00
  Q 271.78 433.00 271.62 432.54
  Q 270.77 430.04 272.52 428.73
  Q 273.00 428.38 273.00 427.78
  L 273.00 409.00
  Q 273.00 408.25 272.25 408.25
  Z"
/>
<path fill="#914b9d" d="
  M 292.72 427.46
  A 5.50 5.50 0.0 0 1 287.22 432.96
  L 286.76 432.96
  A 5.50 5.50 0.0 0 1 281.26 427.46
  L 281.26 409.80
  A 5.50 5.50 0.0 0 1 286.76 404.30
  L 287.22 404.30
  A 5.50 5.50 0.0 0 1 292.72 409.80
  L 292.72 427.46
  Z
  M 288.73 409.80
  A 1.47 1.47 0.0 0 0 287.26 408.33
  L 286.72 408.33
  A 1.47 1.47 0.0 0 0 285.25 409.80
  L 285.25 427.32
  A 1.47 1.47 0.0 0 0 286.72 428.79
  L 287.26 428.79
  A 1.47 1.47 0.0 0 0 288.73 427.32
  L 288.73 409.80
  Z"
/>
<path fill="#d7fdff" d="
  M 261.40 429.06
  A 0.24 0.24 0.0 0 1 261.15 428.83
  L 261.15 428.68
  A 20.31 1.33 87.5 0 1 261.59 408.33
  L 262.41 408.29
  A 20.31 1.33 87.5 0 1 264.62 428.52
  L 264.63 428.67
  A 0.24 0.24 0.0 0 1 264.40 428.92
  L 261.40 429.06
  Z"
/>
<rect fill="#d7fdff" x="285.25" y="408.33" width="3.48" height="20.46" rx="1.47"/>
</svg>
